<mxfile host="app.diagrams.net" modified="2020-04-21T01:49:06.709Z" agent="5.0 (Windows NT 10.0; Win64; x64) AppleWebKit/537.36 (KHTML, like Gecko) Chrome/81.0.4044.113 Safari/537.36" etag="486DXaWlis_hLld6HUIw" version="12.9.9" type="github" pages="2">
  <diagram id="f6wC9bCptlQcY52y-sB_" name="Page-1">
    <mxGraphModel dx="1422" dy="804" grid="1" gridSize="10" guides="1" tooltips="1" connect="1" arrows="1" fold="1" page="1" pageScale="1" pageWidth="850" pageHeight="1100" math="0" shadow="0">
      <root>
        <mxCell id="0" />
        <mxCell id="1" parent="0" />
        <mxCell id="hiWapZE8RPluwQfBrJ6k-37" value="" style="whiteSpace=wrap;html=1;aspect=fixed;fillColor=#FFFFFF;" parent="1" vertex="1">
          <mxGeometry x="734" y="400" width="80" height="80" as="geometry" />
        </mxCell>
        <mxCell id="CtQAfzlsKZZYAoXByQL--2" style="edgeStyle=orthogonalEdgeStyle;rounded=0;orthogonalLoop=1;jettySize=auto;html=1;entryX=0.05;entryY=0.05;entryDx=0;entryDy=0;entryPerimeter=0;exitX=0;exitY=0.5;exitDx=0;exitDy=0;exitPerimeter=0;" parent="1" source="hiWapZE8RPluwQfBrJ6k-19" target="CtQAfzlsKZZYAoXByQL--11" edge="1">
          <mxGeometry relative="1" as="geometry">
            <Array as="points">
              <mxPoint x="350" y="130" />
              <mxPoint x="350" y="220" />
              <mxPoint x="378" y="220" />
            </Array>
            <mxPoint x="290" y="130" as="sourcePoint" />
          </mxGeometry>
        </mxCell>
        <mxCell id="hiWapZE8RPluwQfBrJ6k-26" value="" style="edgeStyle=orthogonalEdgeStyle;rounded=0;orthogonalLoop=1;jettySize=auto;html=1;" parent="1" source="CtQAfzlsKZZYAoXByQL--3" target="hiWapZE8RPluwQfBrJ6k-25" edge="1">
          <mxGeometry relative="1" as="geometry" />
        </mxCell>
        <mxCell id="CtQAfzlsKZZYAoXByQL--3" value="" style="whiteSpace=wrap;html=1;aspect=fixed;fillColor=none;strokeColor=none;" parent="1" vertex="1">
          <mxGeometry x="374.5" y="79" width="51" height="51" as="geometry" />
        </mxCell>
        <mxCell id="hiWapZE8RPluwQfBrJ6k-25" value="" style="whiteSpace=wrap;html=1;aspect=fixed;fillColor=none;strokeColor=none;" parent="1" vertex="1">
          <mxGeometry x="505.5" y="79" width="51" height="51" as="geometry" />
        </mxCell>
        <mxCell id="CtQAfzlsKZZYAoXByQL--4" style="edgeStyle=orthogonalEdgeStyle;rounded=0;orthogonalLoop=1;jettySize=auto;html=1;exitX=0;exitY=0.5;exitDx=0;exitDy=0;entryX=0;entryY=0.25;entryDx=0;entryDy=0;" parent="1" source="CtQAfzlsKZZYAoXByQL--8" target="CtQAfzlsKZZYAoXByQL--14" edge="1">
          <mxGeometry relative="1" as="geometry">
            <Array as="points">
              <mxPoint x="200" y="370" />
              <mxPoint x="180" y="370" />
              <mxPoint x="180" y="270" />
            </Array>
          </mxGeometry>
        </mxCell>
        <mxCell id="CtQAfzlsKZZYAoXByQL--5" value="" style="outlineConnect=0;dashed=0;verticalLabelPosition=bottom;verticalAlign=top;align=center;html=1;shape=mxgraph.aws3.hardware_board;fillColor=#5294CF;gradientColor=none;" parent="1" vertex="1">
          <mxGeometry x="204.5" y="316" width="84" height="100.5" as="geometry" />
        </mxCell>
        <mxCell id="CtQAfzlsKZZYAoXByQL--6" style="edgeStyle=orthogonalEdgeStyle;rounded=0;orthogonalLoop=1;jettySize=auto;html=1;exitX=1;exitY=0.5;exitDx=0;exitDy=0;exitPerimeter=0;entryX=1;entryY=0.25;entryDx=0;entryDy=0;" parent="1" source="CtQAfzlsKZZYAoXByQL--7" target="CtQAfzlsKZZYAoXByQL--14" edge="1">
          <mxGeometry relative="1" as="geometry">
            <Array as="points">
              <mxPoint x="619" y="370" />
              <mxPoint x="639" y="370" />
              <mxPoint x="639" y="270" />
            </Array>
          </mxGeometry>
        </mxCell>
        <mxCell id="CtQAfzlsKZZYAoXByQL--7" value="" style="outlineConnect=0;dashed=0;verticalLabelPosition=bottom;verticalAlign=top;align=center;html=1;shape=mxgraph.aws3.hardware_board;fillColor=#5294CF;gradientColor=none;" parent="1" vertex="1">
          <mxGeometry x="534.5" y="316" width="84" height="100.5" as="geometry" />
        </mxCell>
        <mxCell id="CtQAfzlsKZZYAoXByQL--31" style="edgeStyle=orthogonalEdgeStyle;rounded=0;orthogonalLoop=1;jettySize=auto;html=1;exitX=0;exitY=0.75;exitDx=0;exitDy=0;entryX=0;entryY=0.5;entryDx=0;entryDy=0;entryPerimeter=0;" parent="1" source="CtQAfzlsKZZYAoXByQL--8" target="CtQAfzlsKZZYAoXByQL--29" edge="1">
          <mxGeometry relative="1" as="geometry" />
        </mxCell>
        <mxCell id="CtQAfzlsKZZYAoXByQL--8" value="Raspberry PI 1" style="text;html=1;align=center;verticalAlign=middle;whiteSpace=wrap;rounded=0;fillColor=#FFFFFF;strokeColor=#666666;fontColor=#333333;" parent="1" vertex="1">
          <mxGeometry x="200" y="366" width="93" height="20" as="geometry" />
        </mxCell>
        <mxCell id="hiWapZE8RPluwQfBrJ6k-2" style="edgeStyle=orthogonalEdgeStyle;rounded=0;orthogonalLoop=1;jettySize=auto;html=1;exitX=1;exitY=0.75;exitDx=0;exitDy=0;entryX=0.5;entryY=0;entryDx=0;entryDy=0;" parent="1" source="CtQAfzlsKZZYAoXByQL--9" target="hiWapZE8RPluwQfBrJ6k-32" edge="1">
          <mxGeometry relative="1" as="geometry">
            <mxPoint x="684" y="410" as="targetPoint" />
          </mxGeometry>
        </mxCell>
        <mxCell id="CtQAfzlsKZZYAoXByQL--9" value="Raspberry PI 2" style="text;html=1;align=center;verticalAlign=middle;whiteSpace=wrap;rounded=0;fillColor=#FFFFFF;strokeColor=#666666;fontColor=#333333;" parent="1" vertex="1">
          <mxGeometry x="530" y="366" width="93" height="20" as="geometry" />
        </mxCell>
        <mxCell id="CtQAfzlsKZZYAoXByQL--10" style="edgeStyle=orthogonalEdgeStyle;rounded=0;orthogonalLoop=1;jettySize=auto;html=1;exitX=0.91;exitY=0.05;exitDx=0;exitDy=0;exitPerimeter=0;entryX=1;entryY=0.5;entryDx=0;entryDy=0;entryPerimeter=0;" parent="1" source="CtQAfzlsKZZYAoXByQL--11" target="hiWapZE8RPluwQfBrJ6k-19" edge="1">
          <mxGeometry relative="1" as="geometry">
            <mxPoint x="590" y="160" as="targetPoint" />
            <Array as="points">
              <mxPoint x="432" y="220" />
              <mxPoint x="460" y="220" />
              <mxPoint x="460" y="130" />
            </Array>
          </mxGeometry>
        </mxCell>
        <mxCell id="CtQAfzlsKZZYAoXByQL--11" value="" style="outlineConnect=0;dashed=0;verticalLabelPosition=bottom;verticalAlign=top;align=center;html=1;shape=mxgraph.aws3.mqtt_protocol;fillColor=#5294CF;gradientColor=none;" parent="1" vertex="1">
          <mxGeometry x="374.5" y="250" width="63" height="66" as="geometry" />
        </mxCell>
        <mxCell id="CtQAfzlsKZZYAoXByQL--12" style="edgeStyle=orthogonalEdgeStyle;rounded=0;orthogonalLoop=1;jettySize=auto;html=1;exitX=0;exitY=0.75;exitDx=0;exitDy=0;entryX=0.5;entryY=0;entryDx=0;entryDy=0;entryPerimeter=0;" parent="1" source="CtQAfzlsKZZYAoXByQL--14" target="CtQAfzlsKZZYAoXByQL--5" edge="1">
          <mxGeometry relative="1" as="geometry" />
        </mxCell>
        <mxCell id="CtQAfzlsKZZYAoXByQL--13" style="edgeStyle=orthogonalEdgeStyle;rounded=0;orthogonalLoop=1;jettySize=auto;html=1;exitX=1;exitY=0.75;exitDx=0;exitDy=0;entryX=0.5;entryY=0;entryDx=0;entryDy=0;entryPerimeter=0;" parent="1" source="CtQAfzlsKZZYAoXByQL--14" target="CtQAfzlsKZZYAoXByQL--7" edge="1">
          <mxGeometry relative="1" as="geometry" />
        </mxCell>
        <mxCell id="CtQAfzlsKZZYAoXByQL--14" value="HiveMQ" style="text;html=1;align=center;verticalAlign=middle;whiteSpace=wrap;rounded=0;fillColor=#FFFFFF;strokeColor=#666666;fontColor=#333333;" parent="1" vertex="1">
          <mxGeometry x="359.5" y="265" width="93" height="20" as="geometry" />
        </mxCell>
        <mxCell id="CtQAfzlsKZZYAoXByQL--15" value="" style="pointerEvents=1;shadow=0;dashed=0;html=1;strokeColor=none;fillColor=#505050;labelPosition=center;verticalLabelPosition=bottom;verticalAlign=top;outlineConnect=0;align=center;shape=mxgraph.office.concepts.website;" parent="1" vertex="1">
          <mxGeometry x="529" y="81" width="59" height="49" as="geometry" />
        </mxCell>
        <mxCell id="CtQAfzlsKZZYAoXByQL--16" value="Listening Thread" style="text;html=1;strokeColor=none;fillColor=none;align=center;verticalAlign=middle;whiteSpace=wrap;rounded=0;" parent="1" vertex="1">
          <mxGeometry x="253" y="286" width="107" height="20" as="geometry" />
        </mxCell>
        <mxCell id="CtQAfzlsKZZYAoXByQL--17" value="Listening Thread" style="text;html=1;strokeColor=none;fillColor=none;align=center;verticalAlign=middle;whiteSpace=wrap;rounded=0;" parent="1" vertex="1">
          <mxGeometry x="466" y="286" width="101.5" height="20" as="geometry" />
        </mxCell>
        <mxCell id="CtQAfzlsKZZYAoXByQL--18" value="Publishing Thread" style="text;html=1;strokeColor=none;fillColor=none;align=center;verticalAlign=middle;whiteSpace=wrap;rounded=0;" parent="1" vertex="1">
          <mxGeometry x="120" y="306" width="40" height="20" as="geometry" />
        </mxCell>
        <mxCell id="CtQAfzlsKZZYAoXByQL--19" value="Publishing Thread" style="text;html=1;strokeColor=none;fillColor=none;align=center;verticalAlign=middle;whiteSpace=wrap;rounded=0;" parent="1" vertex="1">
          <mxGeometry x="660" y="306" width="40" height="20" as="geometry" />
        </mxCell>
        <mxCell id="CtQAfzlsKZZYAoXByQL--20" value="Listening Thread" style="text;html=1;strokeColor=none;fillColor=none;align=center;verticalAlign=middle;whiteSpace=wrap;rounded=0;" parent="1" vertex="1">
          <mxGeometry x="470" y="180" width="40" height="20" as="geometry" />
        </mxCell>
        <mxCell id="CtQAfzlsKZZYAoXByQL--21" value="Publishing Thread" style="text;html=1;strokeColor=none;fillColor=none;align=center;verticalAlign=middle;whiteSpace=wrap;rounded=0;" parent="1" vertex="1">
          <mxGeometry x="293" y="180" width="40" height="20" as="geometry" />
        </mxCell>
        <mxCell id="CtQAfzlsKZZYAoXByQL--22" value="Client to controll the IOT Application" style="text;html=1;align=center;verticalAlign=middle;whiteSpace=wrap;rounded=0;fillColor=#FFFFFF;strokeColor=#666666;fontColor=#333333;" parent="1" vertex="1">
          <mxGeometry x="498.5" y="121" width="120" height="32" as="geometry" />
        </mxCell>
        <mxCell id="CtQAfzlsKZZYAoXByQL--23" style="edgeStyle=orthogonalEdgeStyle;rounded=0;orthogonalLoop=1;jettySize=auto;html=1;exitX=0.5;exitY=0;exitDx=0;exitDy=0;entryX=1;entryY=0.5;entryDx=0;entryDy=0;" parent="1" source="CtQAfzlsKZZYAoXByQL--24" target="CtQAfzlsKZZYAoXByQL--8" edge="1">
          <mxGeometry relative="1" as="geometry">
            <Array as="points">
              <mxPoint x="247" y="430" />
              <mxPoint x="313" y="430" />
              <mxPoint x="313" y="376" />
            </Array>
          </mxGeometry>
        </mxCell>
        <mxCell id="CtQAfzlsKZZYAoXByQL--24" value="" style="aspect=fixed;perimeter=ellipsePerimeter;html=1;align=center;shadow=0;dashed=0;fontColor=#4277BB;labelBackgroundColor=#ffffff;fontSize=12;spacingTop=3;image;image=img/lib/ibm/users/sensor.svg;fillColor=none;" parent="1" vertex="1">
          <mxGeometry x="231.5" y="453" width="30" height="30" as="geometry" />
        </mxCell>
        <mxCell id="CtQAfzlsKZZYAoXByQL--25" style="edgeStyle=orthogonalEdgeStyle;rounded=0;orthogonalLoop=1;jettySize=auto;html=1;exitX=0.5;exitY=0;exitDx=0;exitDy=0;entryX=0;entryY=0.5;entryDx=0;entryDy=0;" parent="1" source="CtQAfzlsKZZYAoXByQL--26" target="CtQAfzlsKZZYAoXByQL--9" edge="1">
          <mxGeometry relative="1" as="geometry">
            <Array as="points">
              <mxPoint x="577" y="430" />
              <mxPoint x="510" y="430" />
              <mxPoint x="510" y="376" />
            </Array>
          </mxGeometry>
        </mxCell>
        <mxCell id="CtQAfzlsKZZYAoXByQL--26" value="" style="aspect=fixed;perimeter=ellipsePerimeter;html=1;align=center;shadow=0;dashed=0;fontColor=#4277BB;labelBackgroundColor=#ffffff;fontSize=12;spacingTop=3;image;image=img/lib/ibm/users/sensor.svg;fillColor=none;" parent="1" vertex="1">
          <mxGeometry x="561.5" y="453" width="30" height="30" as="geometry" />
        </mxCell>
        <mxCell id="CtQAfzlsKZZYAoXByQL--27" value="Temperature,&amp;nbsp;Humidity and Light Sensors" style="text;html=1;strokeColor=none;fillColor=none;align=center;verticalAlign=middle;whiteSpace=wrap;rounded=0;" parent="1" vertex="1">
          <mxGeometry x="261.5" y="448" width="130" height="35" as="geometry" />
        </mxCell>
        <mxCell id="CtQAfzlsKZZYAoXByQL--28" value="Soil Sensor" style="text;html=1;strokeColor=none;fillColor=none;align=center;verticalAlign=middle;whiteSpace=wrap;rounded=0;" parent="1" vertex="1">
          <mxGeometry x="480" y="455.5" width="81.5" height="25" as="geometry" />
        </mxCell>
        <mxCell id="CtQAfzlsKZZYAoXByQL--29" value="&amp;nbsp; LCD display" style="shape=display;whiteSpace=wrap;html=1;size=0.17888885498046875;fillColor=#d5e8d4;strokeColor=#82b366;" parent="1" vertex="1">
          <mxGeometry x="110" y="453" width="100" height="27" as="geometry" />
        </mxCell>
        <mxCell id="hiWapZE8RPluwQfBrJ6k-12" value="" style="outlineConnect=0;fontColor=#232F3E;gradientColor=#4D72F3;gradientDirection=north;fillColor=#3334B9;strokeColor=#ffffff;dashed=0;verticalLabelPosition=bottom;verticalAlign=top;align=center;html=1;fontSize=12;fontStyle=0;aspect=fixed;shape=mxgraph.aws4.resourceIcon;resIcon=mxgraph.aws4.documentdb_with_mongodb_compatibility;" parent="1" vertex="1">
          <mxGeometry x="210" y="79" width="60" height="60" as="geometry" />
        </mxCell>
        <mxCell id="hiWapZE8RPluwQfBrJ6k-14" value="MongoDB" style="text;html=1;align=center;verticalAlign=middle;whiteSpace=wrap;rounded=0;fillColor=#FFFFFF;strokeColor=#666666;fontColor=#333333;" parent="1" vertex="1">
          <mxGeometry x="200" y="139" width="80" height="20" as="geometry" />
        </mxCell>
        <mxCell id="hiWapZE8RPluwQfBrJ6k-27" style="edgeStyle=orthogonalEdgeStyle;rounded=0;orthogonalLoop=1;jettySize=auto;html=1;exitX=0;exitY=0.25;exitDx=0;exitDy=0;exitPerimeter=0;" parent="1" source="hiWapZE8RPluwQfBrJ6k-19" target="hiWapZE8RPluwQfBrJ6k-12" edge="1">
          <mxGeometry relative="1" as="geometry" />
        </mxCell>
        <mxCell id="hiWapZE8RPluwQfBrJ6k-19" value="" style="outlineConnect=0;dashed=0;verticalLabelPosition=bottom;verticalAlign=top;align=center;html=1;shape=mxgraph.aws3.android;fillColor=#FFD44F;gradientColor=none;" parent="1" vertex="1">
          <mxGeometry x="369.25" y="88" width="73.5" height="84" as="geometry" />
        </mxCell>
        <mxCell id="hiWapZE8RPluwQfBrJ6k-20" value="" style="shape=image;html=1;verticalAlign=top;verticalLabelPosition=bottom;labelBackgroundColor=#ffffff;imageAspect=0;aspect=fixed;image=https://cdn1.iconfinder.com/data/icons/simple-icons/128/heroku-128-black.png" parent="1" vertex="1">
          <mxGeometry x="380.5" y="96" width="57" height="57" as="geometry" />
        </mxCell>
        <mxCell id="hiWapZE8RPluwQfBrJ6k-23" value="Python-flask&lt;br&gt;app on Heroku" style="rounded=0;whiteSpace=wrap;html=1;" parent="1" vertex="1">
          <mxGeometry x="361" y="175.5" width="90" height="29" as="geometry" />
        </mxCell>
        <mxCell id="hiWapZE8RPluwQfBrJ6k-28" value="Text" style="text;html=1;align=center;verticalAlign=middle;resizable=0;points=[];autosize=1;" parent="1" vertex="1">
          <mxGeometry x="259" y="147" width="40" height="20" as="geometry" />
        </mxCell>
        <mxCell id="hiWapZE8RPluwQfBrJ6k-30" value="Self-built irrigation system from &lt;br&gt;a motor and a bottle of water" style="rounded=0;whiteSpace=wrap;html=1;fillColor=#FFFFFF;" parent="1" vertex="1">
          <mxGeometry x="650" y="483" width="180" height="40" as="geometry" />
        </mxCell>
        <mxCell id="hiWapZE8RPluwQfBrJ6k-40" style="edgeStyle=orthogonalEdgeStyle;rounded=0;orthogonalLoop=1;jettySize=auto;html=1;exitX=1;exitY=0.5;exitDx=0;exitDy=0;entryX=0;entryY=0.5;entryDx=0;entryDy=0;" parent="1" source="hiWapZE8RPluwQfBrJ6k-32" target="hiWapZE8RPluwQfBrJ6k-37" edge="1">
          <mxGeometry relative="1" as="geometry" />
        </mxCell>
        <mxCell id="hiWapZE8RPluwQfBrJ6k-32" value="M" style="ellipse;whiteSpace=wrap;html=1;aspect=fixed;fillColor=#d5e8d4;strokeColor=#82b366;" parent="1" vertex="1">
          <mxGeometry x="670" y="450" width="30" height="30" as="geometry" />
        </mxCell>
        <mxCell id="hiWapZE8RPluwQfBrJ6k-34" value="" style="shape=image;html=1;verticalAlign=top;verticalLabelPosition=bottom;labelBackgroundColor=#ffffff;imageAspect=0;aspect=fixed;image=https://cdn0.iconfinder.com/data/icons/beverage/64/BOTTLED_WATER-128.png;fillColor=#FFFFFF;rotation=120;" parent="1" vertex="1">
          <mxGeometry x="736" y="401" width="50" height="50" as="geometry" />
        </mxCell>
        <mxCell id="hiWapZE8RPluwQfBrJ6k-36" value="" style="shape=image;html=1;verticalAlign=top;verticalLabelPosition=bottom;labelBackgroundColor=#ffffff;imageAspect=0;aspect=fixed;image=https://cdn0.iconfinder.com/data/icons/interior-and-decor-vol-1-1/512/2-128.png;fillColor=#FFFFFF;" parent="1" vertex="1">
          <mxGeometry x="760" y="411.5" width="64.5" height="64.5" as="geometry" />
        </mxCell>
      </root>
    </mxGraphModel>
  </diagram>
  <diagram id="eOigz_S1K99QW3Lh7b9G" name="Page-2">
    <mxGraphModel dx="1422" dy="804" grid="1" gridSize="10" guides="1" tooltips="1" connect="1" arrows="1" fold="1" page="1" pageScale="1" pageWidth="850" pageHeight="1100" math="0" shadow="0">
      <root>
        <mxCell id="wdbDjhXvNk0YBGwekLuv-0" />
        <mxCell id="wdbDjhXvNk0YBGwekLuv-1" parent="wdbDjhXvNk0YBGwekLuv-0" />
        <mxCell id="wdbDjhXvNk0YBGwekLuv-63" value="" style="shape=image;verticalLabelPosition=bottom;labelBackgroundColor=#ffffff;verticalAlign=top;aspect=fixed;imageAspect=0;image=data:image/png,iVBORw0KGgoAAAANSUhEUgAAAMgAAADICAYAAACtWK6eAAAABGdBTUEAALGPC/xhBQAAACBjSFJNAAB6JgAAgIQAAPoAAACA6AAAdTAAAOpgAAA6mAAAF3CculE8AAAABmJLR0QA/wD/AP+gvaeTAAAACXBIWXMAAAsTAAALEwEAmpwYAAAAB3RJTUUH4gccBxE2ppuEEgAAJbVJREFUeNrt3XmcFOWdP/DP89TR99zDHMBw3wgqatRgPDCa4AXeiBqN0Rizidkkblz1l/xMjLvubg7Nqhuj0fUWRPA+ooggeHPKfc5wzd09fdX9fPePnsEBoRUYunvgeb9eIy3M9Dz1VH3q+1RV11OAJEmSJEmSJEmSJEmSJEmSJEmSJB0isxZtwqxFm/LdDGkvWL4bcKQiIky4+RmojLA1auEbxx2D0f0iSFsu/jxtZL6bJ3Xi+W7AkejHD7yLo3/8BI4e1Z8LohGj68ovDersJCL4Xl7WjGseWQEiynczJcgKklPn/GY2Eikb8//rJ5jwkz8OS5ruxYZlTxnct3Jked8BDQT+ll/jM0I+ZXV7yomXhTQUBVT84bIR+W76EUsGJAeICN++fRb+8fuL2KRbn+/X0pGekjKdq23XG01EwWF1VSirrYMAdwGs5Yx9rirsfyvD2vuvLGtJTBpdjn85axBG9gvle1GOODIgh9DND87FR2sbsbmpA8cOreq3oy05JWHYl7muOF4Q+YBMeIbVVaG8tg5etxEvA6KMsbd1lT1V5FcXfNYQbx9RFUJpUMP9V43K96IdMeQxyCEy5bcv4d4f3Ys+JaHSmtLQ5eu3Rx9vjxv/bjvexK5wZENAqSC6xHTE39tSzsNDK4MX+TWl/P6rHsE1D6/AnMVN+V7EI4KsID3oH4u34Od/ew9p08FxI2qK129rP6UjZV3luOJkQdRvbz+zrwqyF3HO2DuawmaEdGXe39+ub7z4lL4I6yoe+8HYfC/6YUsGpIdM/4/X8ManWzCktiRo2c7JKdO9zHK8c4ioEoC6r5/bj4B0aeOMfagq7Fm/xt8eWBZs3tCSEhccU4nLTqjJdzccdtSDf4sj2xm3zsT6be0oDfv1QVVF32iLG1c7jnemIBqAQ7MDKhdE59gunep4Yv7qxuQLusLeufT46i1P37cEZSEdj143Jt/dctiQFeQA3froAry/cjsG9Cnyr9vWPj6etqdZjjfF9URf7MeO5wAqyJ7aOcOnjLHZIZ/6enlI37E9ZjhnjirHDaf1O5D3k7qRFWQ/3fTfczFj/mpMOmYAf//z7ROWbGi6ImU65wpBQyg/O5wyQTgLRN9MGM6Fhu3NYQzvjO8fWT/5T58JXeWY85Nj8t1tvZYMyH6qLA4pw/qWDb35gbnTDNu5wnHFIBRGP4YI+LbjiQmM4aL/eGPzK2UhbW7S8lYDsPPduN6qEFZsr7KqoXlMUzT1V8f1TqDCPE1eRoQzPKJvJS1vMYArAazPd6N6q0JcwQXNsN0BYBhRoOHoTgUQQOG3s6DJzjsw8pOERwgZEEnKQgZEkrKQAZGkLGRAJCkLGRBJykIGRJKykAGRpCxkQCQpCxkQScpCBkSSspABkaQsZEAkKQsZEEnKQgZEkrKQAel0JM+wfiQv+1eRAQFw8V0v4ycPvov/eLMB//TUWryxtCXfTcqJWx6Zj+N/+iRu/J8FePSjKP577vZ8N6ngFMQtt68tz2yQk8dV5uT3/f2tz/HEO6vw7rKtuPKM0bwjZQ4sDftPKA2qcdcTq99bH9064vYF7uCKIMrDOo6pi+AXZw/MdzcdFCLCFfe8iiUbWrBm4RpccMVE3hJLlwhBJ/ctC0X8GtvU2GEuHfSr+dZRfSMYUhnAn3L0GIYZ89ften3pt4bnu6t2k9dpfy65+2UMry3DC4s2INKnH+pqK9C/xIe6cj8WboihutiHbw4pwbSTDn5CtBvu/Qc+Wd+ImvIivPb6Mnz37LFVTdHUAMNyLzcs5xTN5x8xaOgQKxwOtRDRQl3hHzGGBX5NbX7supui0/76FwytLsKSxUvOW9XQ9pjteGU90Qc9MO1PNisAXGI3b1q7sr4NU04eFnnrsy3VRSH/sFjSOMe03TEAxhaXlukDBw+Kqooyz6fxlwB8ePKQkqYPNsbcIX2C2B41cdeFw1Bb8pUzpmblEuHmB97Fp+sbUVsaxODaUny8thEbd0YR8/yYcsYEKBx4/LqxYKwwZqTKWwWZdOtMvL24HmXhQFBTlVOqSgI+AJblirVb282dAU1xnv1kh1jblMKF/70UpUENJwwuwg2n9tuvznvs7VV4+I3leOjJhTh38njVdL3Bw8f3P23TztiUtOWOJqJ+RKSomedxRIhQQYRRliuuBbDG8Zz1F99/70tEtCGWslcSmAbqNfOJMS7coO2KCarCj35r8ZbjTNs9PWHE+wAoBTIBBQNAFBFEVxu2N5kxrHpvXfs8TeFvpm1vyd8XbDNakw5uenwVHrh69H41YPaizXj14w34bEMj+k77HzS9sgRX/HqKumJTMw8HfeWeECdoilJ1/MDyBAM+fuIHD2903Ovw/2ZvwO+mDs13/+V2RRMRTv/VDOiagpBfC9Q3xY/uSFnXM66cMWbMyAjXA4KBooLwEWdsu1/jaz1BKxyPWqqK9I4Hr/5T7Pz7foTioIbKsIbmhA1PAMOrgpg4vATfHl0BAPjFQ+/ircX1qC4L4x93z8IZt15YE0uaYwzLvSxtuaME0bFEFOjerkAggMHDhiIUCu3t4TVJxpBgYO0tzU3Bhi0NdZ4QSk/1ySGsIGbDli317S0tQY9QSUQagN3aTUQor6zAwIEDwZXd/sllDA0A3vKp/GMG9m7/Uv/OrVHD6lPkQ8J08bMz6zCurghEhL+8uARvLtmKNVtbMX5QBVyPsGZbO9bN+QS3/+HKojc+21zT1mEU9ykJDjcs99RYyqzhjA9hDFVCiOCAulqrsqb/QlVhM8I+5dW//3pey8//60wwAH+4PH9P3MpZQCzbw3E3P4l/Omc8n7lw/fiGlsQ02/EucT1Rp+saP2rsaDDtSyWcAOwEsE3lbCcBK4WgpWG/urMkqK6PppxoSUh331vbJurKAhB2Go3bt2PJu5/jlLPGaLqqjN7Wmvi2J2iy5Xijiahqb237GgHJdBZjaG5qQkN9PUgc/LwN1LkChnc+H8QFB3r4yVJbNm1GS3ML9lV0swSkO4MxLFcYe15V2CdVEd/ie3/+ZuKcWydCGB1Yv6keG9btxHP3TOe/fvRdbUhVxMcYH7t+R3ScZbuRoF873na8sZbjVQMoxh4nhxgDBtbVory6HwDEFM7eVzl7oH+Z/71Xl7emTx5Sgke+n5/pVA95QIgIp9wyA+8/MBcTrpvY33HFBR1p+ybhiWHUOcTTdQ37CMjexBmDASBKhI9Uhe/QVbbcFWydaaRT2xvqfa5l9E9b7kW24x0vCCOJSP2qNuYyIARA4Rx+FfAcE1XFOoJFJVBDZQiGi0GKBiKGnpg8ZcumzWht2fdZua8ZkC5pBiQYw1xN4YuIxLvxaJu9dv2WSFBXqnw+7ZT2uDnGE16pwvkwIahUECn4iqH8HgHJ/B2whjG8HtSVpyN+bWXMcAwhCM/9aPxB98n+yMkxiF9XQ2Ou/ubF7QnzctcV36DO8e8BKiJCEYAqxthI1xMwDBvRaKw+1t4Wt0wzaNlOBTJ7qoJABHDOwBmgMCDsA5LxNsB2YCY7sL7ZAQBEQkFESsoRLi5HWWUtWKAEqqqBGO8sLHmfbShIQJAI0yxXXM6AtXqoyKobNKisrbWtrD0RD7meByICkTi4PgNGEmFoyvImmY6Y6dP4i8SwEsDBvfF+ykVA2LaWjmtTpnsXERWhB6oWYwye6yGdTqEj1oFYNArLtgcIz8vB4uwfzjkCGoPnGAiqHjpibWhrN+E6DjwhdjvhEE+m0JFIQtu5DQ0b1yAQCqO2pi94qBzFJWWAHgKxnh+GHSBGwEiuaCgtK0NRcTGMdBrRaBSJjjgMw4DYY/kOgErAOFfQCM/ypmgqvxaZM3M5k5MKIgSGENFB7dEZYxBCwLZtxDs6EO/oQDKRhOM4uempr99QcMagMIEiH0Mi3gphOTBScXTs0dY9Nx7GWCb8guCaBkzTQLS9BZqqobSkBFqoBFVVtdCLKqDoQTCuAoyDQHkPjaIoCEciCEcisEwLiUQCsWgUyUQCruuCiA4mLD4CJgDoj8MxIDjIsYHrukglk+jo6EA81gHLsnpi79SjGGNgECAnDZ9GsBLtaHFMuK57QG3t/v2O66KppQWspQXN27dA032orKiEFqmEFipFKFIMXyCUGcwXwFDMF/DBH/CjtKwURtpARyyKeDwBI52GEAc8QqJ8LFhBXEnfF9u2EW1vR0esA6lkEl63IVRew0EAwDJnhsgDJxdOOgbyLHh2GqZw0X0k2RNt7XoPx3XhuA7q65MA2wyu6giFSxAoKkdReQ1Kyiqg6j6oqpb5uTz1D4E6q0oY4UgYlbaNZCKBWDSGWDR6MEHJqYIOSLwjju1bt8HzvIKqFpwDnpkECRuOEQN5Nkh4mWEOYzj0myXb9SuE6yAebUY82ozWbRug+XyIlFahpKIagXAphCiM4zJd11FeUYFQOAzLNJFKpfLdpK+loAOSORtyUGPXHm9PpKgI/WqrEW/bgVQsCVIYPFLgEYHI3TUIyF2bCYwBDAxEArZlIdq8HbFoG3zhCjC1cJ6tTkTgjPWq55oVdEAKkd/vh7+mH8qra0HCg22aMJIdSCbisFJR2EbKJTu5PW2kQ47rRVjmALPHdF4dMXRNTSqKymzBK6D4oCgqoPjA1ADAFAAMLgC4br67bDcFcf5tP8iAHAjGwJkCcAWBsI5gpBjlNYAQAuRYqQo1eee89+auGVgT6e/3acfWN7aPS6XNak1VagRRse14ga7rBHurNJkLlQycM9JVJcUYizqet7O8OLKtprxoTUfS+MRy3KayPgOv29icvo6Yil3RkXqUDEgP6LryzhiDFgiKgf1rNuO9dz5Y9PDvPyBKzpp4439qRw2qjvh0bfhna7eOqN/ZUlcU8o8UgobHEun+nucVgTGNiAyfrsdKI4F61/PWJA170+jBfTcdPbTv6qb2xJaU7aVn/O4HDmNjBLAK373jhQvAnc5TvDIch4IMSA8jIriuq2x64d8xe95i/OLeGV5HMu1Fgn4TjLVwxhZufekJLFz2fuSvc+ZXfrBiY1m/PsUDQwFfTWs0uSFu2DvPPnFs223XTG4tO/Z7xlFD+sGna4gEfVi3bStufWAWXlrwNM6bOF757h0vcBmMQ0sG5BCaetqxu15//tQXf7+pMYY3Fi5JGJadSKTNTe8+cP+nQAwInoqR552KRNrEawuXo+XTR1FZEsFr3d5zUeefVBhX0w97MiB5MLi6ZNfrlqSDtxddhraOJAbUVOC8ieOw5jngr/lupARABiTvKsNavpsgZSEnbZCkLGQFybOlG5vRGDMQCvhxyuiqg39DqUfJgOTIO0vq8emGZryzpAGxlIlR/cuwoy2Jo4fciKTxrC/k1+zpDy2n2mIffBrHhmYDA8r9OGFQEQZXBnHMgKJ8L8IhVpiX1/MakK5bTpWuD/0xgMAOmxOXr36yBR+u2YG5S+sx6fuPgBbfyVfWt/kAChSH9GEtHcqYodeeM2jaf75VHa6oXa2oWrNP5dtKgtoGn2a1HlNX5F10XLVz4l0f4cb/XYUJAyMYVRvGxGEHc79ZfnXFoOtja5wxKBxg5IGDOm8OK5wtIG8BYQwIqgR4JgJuDI1rYwgVl0PoRQiFw/D7Q2AHeVdaXpYLgMKZGHn9o5h83AB1+eaWWs5YzfiThlSdffusCW0J86iWWLpuw45oLQEljiv8CcNhmkcWCc9d3ZgyibCCMex4c2Vr84+fXLUkmnJXcYZkyKe0fnNoSfTSB5d5AARA1Nv2JgRA4wxFfoJt22DCRkQjJHdGwcx2BMtqEIiUQii+vN/jAuQwIESAwjP3TAQ1AeamYCXjsE0DUdvp7Lot4IyjKBxEIBiBGs7NRHIHqutjIkKIXV+GY6vLVzd/W9eUicOu+3t1yK+NTVvOENNyS9viZrDrZ22XOvul8yo84BNEPo8QAnAaCIimHERTiANocT1Kv7q8dfOcJS3vq5zFbn9hw3Y9EKrQfcnMPSdEICF2u6pfcBgDJw+K1QQ7EYVrWzBMCx1dOdixA+HgWkRKKlBV0x/B0hpwXxDgat6ykpOAaAqxkCbAvDQUL42OWBzCc+G4HsBYZ9nt3NiIEI0nEY0n0a+fH4yFCmFHshshBBzHgWPbsCwLpmEinU7DMg24rhcGiX8WRLoQxA3L7f7p9ANRBKDI9gRsD0cB+I7DINY2pmxeVKWOHFMOy7JgpNMwDQOWZcG2M20ruLstCVA5gTkG2qIxMMa/NNtKIpVGIlWPlqYd8AeCqK6qQbiiL0IllYwpgZynPhcBoYqw8kyQKw3t7cao1nS6n+M4RUQU4oxVMs4UzpgPQNATpBERyyi8vSARob2tDdH2dji2A3vvGyED4N/1Pz2/CDoR4BH5wRg0TYOmaQiHwwBjEJ4Hx3bgOJnwNjc1I5VM5rvrdu+ezluLO/uGOGOCc24BZAhBtiByXM9rNIy02d66I6aJ1MY+IaxXA1XLc93anFSQ91Y0fox/3PrxbQ/O8S1csVFbV79TEcLl5UVhX111eZGqKv2ao4nhO1qiFZbt6IyxSl1VIpqmDoCNk1FA12sS8QTa29p33T9eUIjAOYc/4Ic/4Eeks72FExAC40rC7/O9pypKzBOiFUA8FPSb/SrLdpRGAuvjaWNHQ2N7Op4ybJ+uixED+3qTjh1m3zyrw/nGsbm/qHrIA8IYw4Oz3kX9lOexZssOK55KW0SZsXIibWJna6wx4NfXmZY9t2v83LxyE6jhRX7Sz56aKJKpN9Ftj1wICjIc3RTSWaAvUfT6U791xrUfTD+6TT35eiorCsHzBJKGCdtx0JEyYFg2AMDzPLTFEvho1Rbc9d1qVJSk8FGOm5uTCvKji07f579t3cvfvbZoOZ58bYGIpZxC2fVJPYQArz6tJx+eM48+eewOHDtiIACgfh/fvw3Awjy2tyAvFE4+eRwAYNT1jxbublo6YAo8dv3U0w/+jXKgYMb2klSIZEAkKYuCGWItWBeFyhkcIeC4hDNGlWHUDY8W8NGmdKAEGM1ZtB6OS/D7VPhUDgJw9oSB+W7al+QsIK9+vAkfrW3EZxuasWZbO4ZVF2PMgEqs296OVQ2t+MkDc9F3wEB4BHiCcM/rWxDQVS1pFNjFLumgMICP7BPQp1x4nwm/Bgzpg0BRCKecNAHTH1qBAWU+gAGrdqQQ9CkY1ieIUdUhXH7iwT9l7EAc8oAQEUbd8Ciu+cMbaPl4E5576iZ+5+Pvq43RFK8sCZU4nhgNosGKwkp8KisX6LyyzgCjtHJka3yrVtCnLaX94nlu/xfnLf7jwLPGtoMxCEEiEPA1awrbQkStaVtsSNleBwBrSJ+Q9/ynjdS/zI8pf1mCoK7g6R+Oy2l7c1RBWN+wX+s38LxjBvzXcx8cZ5j2oLjrlcxf0dCfc1bquF6R5wmdOo+JuqaXFaxHHuIkFRDXEyUp077O8QiM7drxeQBLGI6wGtqNDkFIAvh0zY7kzmPqIqssVzQ7Hm1jDDsApHPZ3pw8/oCIfuB44p92tifLGMC7usUTBE9QoTz7Qsqh7tdZGWMKgBLKfDi5666xYx1PwPFAAEwAa11BPwHwfi7bmZMKQoQSABWAjIG03xiAAICjOx+clFO5Os0rcyEdrLzMjievg0hSFjIgkpSFDIgkZSEDIklZyIBIUhYyIJKUhQyIJGUhAyJJWciASFIWMiCSlIUMiCRlIQMiSVnIgEhSFjIgkpSFDIgkZSEDImXkYCpVtmsm/96jYKb92ZtczfDeNddub1t5PYYIQohD3tdEBNHLJuAo6ICEwxHUDRiQg9vICIqiQtP1wp74+RBgjCGVSmNbQwMY4zi0N+0xeJ4Hu3Ny6t6goAPSNY2/dGhZpgnLNPPdjIIkj0EkKQsZEEnKQgZEkrKQAZGkLGRAJCmLgj6LlS/dZ0LtftKzc2rMXkUQwfMEumYE33Wlg2X+r4AftVgQDpuAfOX0vt2eVb7bvLDdfp4B0BSOgM7hVzl0lUNTOBSWKbUeERJNKlpwUM89z6mxA6uA2mIQCTiegOO6MG0HadNG0rCRMGzYrvelzqTOF0TIfGXp3K7n3B+OYSv4gHS/bre3VcQZoHIGVWFQeOaLo1sIOle2yjnCPo6grsCvcfhUDrXb9wqRmUybMQZdYVD5F+/HOr+HiLAppGfa1Es2hmOG9kVlSIMnCEIQPCHgeh5s14PtuLAcD0IIcJ5ZICEEbMeD5dhImTYSaROxlI2OpAnH88A61wN1Xn33hIDrCjieB8vx4LgexG57qz2rVqYze0n3FVZAeNeWCEBhDH4ts0HrKoeuMqiMgXd2MlFmj87AENAye32fyqErX2z4YJnvE4IgqPOjK1/8ii+tJOr2ouu1EF/Ekoh63ZV2IoLrffERD845fJzDp+tf9MFeOoK6qseuKkJgADhjIGTC4bgCtmsjbTpImTbihoO0YUEQZfqYAE94sB0PtuMgbXV+X9qGYTkQQoAAKJwXbPUpmIC4pgE31oRwwAefrkFTVYRUH0I6ENQBv65CVxVoCgfnmS8GBkG0q8p07dlIEPYYNIB3WwG0l+OLr6NA1+F+o26d8FVD013HKd22YAYGReFQFMDv01Ec7hxkdR7XcJZ5zRkDEXU+Vs9D2naRNF2kLBdCCAAEyxVIOoQOh0MU4L6nIALCGEMsaWDx2oYvCnJnB/t1FWG/hoBPg09X4dNUqIoKVVEQ9OsIB3REAhoCPh0+TYWuaZl/VxUoXR9CZPjiz+4HI9S9avS+A/BDpXtV6T4Yom7HJAIEhTFwzkAAXCKYtkDa9pAwPbhCgHf2uUeAIwim4yFlCRhOJhwZPPN+BVqZCyIgXXY7GOxcCQnDRiJt7WX4Q1A4h6pwaCqHyjk4Z53lmkNVFRQFfSgO6Qj5dQR9KnyaBk3VoWkq/LoKn6ZkqpKqQFOUXZVJ4bzrV+3ePgCHSx3pCkHXRgwAggBXEGxXwHIFXEHQFN65kRMsj2DYHuKmh4Tpdg6lOo9dQPAE4HmZiuGJ7j3Idv23UIdS+1JQAdmbLx3U7fHC9TJj4YzdN+nGti9/XL5rw/BpKkJ+DYHO4Pg0BaqiQlEU+HUNRcFMdQr5dfh0FX5Nh6JwOK7bqyLiCgIYgbNMABxBMByBlOUhbnkgol3DT5cAxxMwbIGU7cHe1a9f7t29Ds26FWe+14Ob3qfgA/J1sC+nZ5+6VqxpuzAsd7eK1VWZGGOZ07vKF5WJcw4OwLDdXWd8eoPlO5JQlS/aK+iLR985X3r8HdvrqfC9OUy2/690WATkQO06JgG+VJk8QXCFB4u6Dvc7B1i9bIxguAJw97Ls6D7k6V3LlEtHdEC+yu7bTu/ciHpnqwuH/CyWJGUhAyJJWciASFIWMiCSlIUMiCRlIQMiSVnIgEhSFjIgkpSFDIgkZSEDIklZyIBIUhYyIJKUhQyIJGUhAyJJWciASFIWMiCSlIUMiCRlIQMiSVnIgEhSFjIgkpSFDIgkZSEDIklZyIBIUhYyIJKUhQyIJGUhAyJJWciASFIWMiCSlIUMiCRlIQMiSVnIgEhSFjIgkpSFDIgkZZGrgMgHHUkHq+upcTmVi4BQwKcuUxW+lLG9PS1PkrJjQJPC2cM+la/L9e/OyTMKy4uCTwd09cNYyrrYctxLHVcMA+DP9cJKvQsDGjhnb/hUPiPiVz+Yemyt8USO23DIKwhjDGnTsZOms2b1Q9f8vjTsv6IkpN+tKnwxY3ByvLxSL8CAnQpnD/o1fvXg8sDPXY/eSZhu+tXljXTw775/clJBPvzzNADAT8fVkSB8Pvm4Aas/WNM0ozVuTLUccYXtesMB+HK98FLBaVA4e9Wn8mfKgton72+MmhVhHTNuGp+3BuXl4Pm0W56FYbv44I+XshN+9twI0/YuSZrOFE+IsUTQ89YbeUBEGFZXhfLaOnhH5knFFANinLMXdJU/17/Uv3hru2noKkPfEj/uvnhYXhuX17NL1/zhNSzf1Iqzj+2vLFzdOKylwzjfdsV0y/FG4AipKEdwQFIAVqqczdBVvqBfqW/pwg0x++i6Itx/5ah8t22XvJ9+JSKc8stnoHCO+246i//w3jeGpi3n0njavsATdBQRHdZBOQIDkmAMyxjY6wGdz64M61taErZRGdFRFtLw6wuG5Lt9u8nJMUg2jH2R0XsqXhNpy1n30wsm3P30u6uf3xlNnmc73pWW440Ejqyh12HIYMBSRWEzVc7fOXlI8coZnzZ6EZ+Cp344Lt9t26e8V5A9ERG+dctzCPo0XHH6aOXBV5YMSlvOtIRhn+d6dBQRHVanh4+AChJnwDLO2SsBTZldEdEbmuKWdcH4CqxrMgquYuwp7xVkT90rSiT4shdPWxueuOXcu/71sfkzt7cmzjVtd7rteKNJVpRCZzKGjxXGZiqcz/3xaXWrf/vqBgrqCp754Tg8k+/WfU0FV0H25ZzfzMZVZ45V7pv96YCU6UyLp+0LXM87iqh3X3A8DCtInDEsVTh7IagpL1UX+bY1RE3nkStHIhTuffu0XrNGXr1zKl5YsNZrT5iblj1w9e+H9S39XnHQd4dPUz6TFxwLgskZ5moK+1VAU34w80fj721N2pujacd59sZxvTIcQAEOsbKZcdu5u15zxlb/9WdnrfvVw/NnJQ37snjavtDxvHG9vaL0Qh2csU8VhT3vV/mrw2rCO9ZuT3hrGlN47Z8n5LttB63XDLH2Zto9r2Lx+iasXbAO37nk+BHbWhPnGpZ7ue1644mg5bt9X0cvHmIZnGGBqvCZIV1569HrXmm44L6z0afYh799b3S+29ZjenVAuvvOHbNwyyXHK3c+uah/R8q+JGnYU23HO5qAQL7blk0vDEgHZ+wTTWFP+jXlrfPHVTS9sqJV/HhSfxw3sDjfbetxh01AAOCSu1/Gso3NaIqmcfKYvkO2tSbOSRnONMcTxxJRQQ6Ce1FA0pxhnqbwZ4M+Ze7ji7ZvP//oPqgp8uGBqw+firGnwyog3X3njll4/XcXsjNundmvLW5MTZnO5ZbjHYMC+5h9LwhInDP2gaawx8I+Ze4j33+u+dpHLsO0E2tx1piyfLftkDtsAwJkjlGWbmzG6sX1OOussUOaYulz4mnrctejYwrlgmMBByTBGeZrCn8q7FPmfri5o2l0TQj9S/3447SR+W5bzhzWAeliCcLk257H2/92MTv79hdqd7Ynz09bznTL8SYgzxWlwAIiAGzkjK1XFfZoSUCd+9ArG9uv/e5gTD++BmeOK893+3LuiAhIl0vufhmbdnbgs5c+w6Rp3xzQGk9Pjqes6a6gCfmqKAUSEBtAA2N426/yGUFdWTF/fbT1+IHFqCrW8afLj5yKsacjKiBd3l66A797+n3Mu+cSnPPrOX0bmuPnGbZ7leW4xyLHFSXPASEA6zhnbykML9WW+D+49zcLU9fcegJ+e/5Q1FUW9AnAnDgiA9Ll4t+/gmjCwDv//hBOveX6uo60dXYsaV7lZSpKMBdtyFNAbAANnLE3fBp/Xlf48nVNqejYvmEENI77phfO/Rj5dkQHpMuf5yzDzPmrsfCPl2Pqb1+qXre9/TzTdq+yHO94HOKKkuOAEIC1nLE3OGcvDigLfPjX+fXm1GOq8fgPxu72QVEpQ/ZIN1N/9xJ0RcFzt/0rvvmL2/qmTeecaNK8Ugg6WmQqitLTvzNHAbEZUM85e1FX+GxF4StNx+sYUOaH6YqCuoOv0MiA7MWfZi/Fs/NW4aN7r8BFd71cs3Zb+5mm5V5oOe6JBFT35O86xAEhBqzinL2hcjZrSJ/g4tc/b7VGVYfx1A2yYnwdsoeyOOfXs1FZHMRjv7gPJ/1serXleqdFk9alricmElEZeqCiHKKA2IxhM2fseV3lc/wqXxM33OS4/hE0dViH9ZXvniYD8jXc/9JiPPqPVfj0L3/E9Ht+V7lsU8uZhu1eZjveNw62ovRwQAQDVimcvaapfObAysCyjzbEnL4lfjx+vawYB0L22H667k9v4pF/vhEn/PSuPrYnTutIWRe7njjtQCtKDwXEYQzrFcZm+DX+UsivrmlPOsbw6hB+f+HQfHdZryYDcgDufuYDzFiwHkvfWIZpN0yqWL65+QzTdqfZrvcNItTsz3sdZEA8BqxSFTZHV/mM0TWRNfPWtrm1pX489v0xsmL0ANmDB+nK/3wdT97yb5j4i5sqkoY9KXPjljiDiErxNSrKAQbEZQyrFcZm+HXlpdpi/5ptUcMe2ieE304t7EkQehsZkB5w17Mf48l3VmLN5mZcfPqYytUNrd8ybPcKxxUnEVHWirKfAXE7K8bzuspnnjasbP3spU1ebYkff7tmtKwYh4Ds0R520V0vY9ZvXsDpv5xc2pYwJiUNe6rjim/v6xjlawbEYwwrFMaeCfuVOcMrQxtXNia9MTVh3Hbe4Hwv8mFNBuQQuPOpD/HMvDVoT6Rx0uh+5Zt2xk5JmfbVjitOJKJqdOv3LAEhACYD1qkKe0ZT+Kz/f97gjb98fj1VRXT87dox+V7MI4IMyCF27m/m4JU7Z+LsOy4q3dGWnJQ27Sl2pqJUAOD7CMjOzjmlXgz7lXmTRpbVv/Z5mzhxUDFuPmtAvhfpiCIDkgO/fHg+Xv9kMwzbwaj+5RXbWhMnJQz7GtcVJ3pC1Ayrq2JltXUkwGMsc1vrbAa89+yN4xoufmAZSoMqHr52bL4X44gkA5JjZ90+C2/9+TWc/y/nF2/eGTszZTpT62rKJ1T0HbCamDKrNKi+07880Lxqe0JMPqoS35tYm+8mH9FkQPLgx/fPxSfrdiKRttG3IlxJXKuurRvU/sQPn90+/aFp0BSOx66TFaMQyIDk2am3PAfDYxg8dDi+c3QNrjm5Kt9NkqTCMmvRJsxatCnfzZAkSZIkSZIkSZIkSZIkSZIkSZIkSZIkSZIk6cD9H5kL8K2SrAcQAAAAJXRFWHRkYXRlOmNyZWF0ZQAyMDE4LTA3LTI4VDA3OjE3OjU3KzAwOjAw/U0PBwAAACV0RVh0ZGF0ZTptb2RpZnkAMjAxOC0wNy0yOFQwNzoxNzo1NyswMDowMIwQt7sAAAAASUVORK5CYII=;" vertex="1" parent="wdbDjhXvNk0YBGwekLuv-1">
          <mxGeometry x="269" y="290" width="90" height="90" as="geometry" />
        </mxCell>
        <mxCell id="wdbDjhXvNk0YBGwekLuv-59" value="" style="rounded=0;whiteSpace=wrap;html=1;fillColor=#f5f5f5;strokeColor=#666666;fontColor=#333333;" vertex="1" parent="wdbDjhXvNk0YBGwekLuv-1">
          <mxGeometry x="607.5" y="488.25" width="142" height="93.5" as="geometry" />
        </mxCell>
        <mxCell id="wdbDjhXvNk0YBGwekLuv-50" value="" style="rounded=0;whiteSpace=wrap;html=1;fillColor=#f5f5f5;strokeColor=#666666;fontColor=#333333;" vertex="1" parent="wdbDjhXvNk0YBGwekLuv-1">
          <mxGeometry x="320.5" y="608.25" width="142" height="40" as="geometry" />
        </mxCell>
        <mxCell id="wdbDjhXvNk0YBGwekLuv-47" value="" style="rounded=0;whiteSpace=wrap;html=1;fillColor=#f5f5f5;strokeColor=#666666;fontColor=#333333;" vertex="1" parent="wdbDjhXvNk0YBGwekLuv-1">
          <mxGeometry x="80" y="541.75" width="205.5" height="160" as="geometry" />
        </mxCell>
        <mxCell id="wdbDjhXvNk0YBGwekLuv-2" value="" style="whiteSpace=wrap;html=1;aspect=fixed;fillColor=#FFFFFF;" vertex="1" parent="wdbDjhXvNk0YBGwekLuv-1">
          <mxGeometry x="171" y="560.25" width="80" height="80" as="geometry" />
        </mxCell>
        <mxCell id="wdbDjhXvNk0YBGwekLuv-4" value="" style="edgeStyle=orthogonalEdgeStyle;rounded=0;orthogonalLoop=1;jettySize=auto;html=1;" edge="1" parent="wdbDjhXvNk0YBGwekLuv-1" source="wdbDjhXvNk0YBGwekLuv-5" target="wdbDjhXvNk0YBGwekLuv-6">
          <mxGeometry relative="1" as="geometry" />
        </mxCell>
        <mxCell id="wdbDjhXvNk0YBGwekLuv-5" value="" style="whiteSpace=wrap;html=1;aspect=fixed;fillColor=none;strokeColor=none;" vertex="1" parent="wdbDjhXvNk0YBGwekLuv-1">
          <mxGeometry x="279.25" y="50" width="51" height="51" as="geometry" />
        </mxCell>
        <mxCell id="wdbDjhXvNk0YBGwekLuv-6" value="" style="whiteSpace=wrap;html=1;aspect=fixed;fillColor=none;strokeColor=none;" vertex="1" parent="wdbDjhXvNk0YBGwekLuv-1">
          <mxGeometry x="410.25" y="50" width="51" height="51" as="geometry" />
        </mxCell>
        <mxCell id="wdbDjhXvNk0YBGwekLuv-7" style="edgeStyle=orthogonalEdgeStyle;rounded=0;orthogonalLoop=1;jettySize=auto;html=1;exitX=0;exitY=0.5;exitDx=0;exitDy=0;entryX=0;entryY=0.5;entryDx=0;entryDy=0;" edge="1" parent="wdbDjhXvNk0YBGwekLuv-1" source="wdbDjhXvNk0YBGwekLuv-12" target="wdbDjhXvNk0YBGwekLuv-19">
          <mxGeometry relative="1" as="geometry">
            <Array as="points">
              <mxPoint x="268" y="482.25" />
              <mxPoint x="248" y="482.25" />
              <mxPoint x="248" y="335.25" />
            </Array>
          </mxGeometry>
        </mxCell>
        <mxCell id="wdbDjhXvNk0YBGwekLuv-8" value="" style="outlineConnect=0;dashed=0;verticalLabelPosition=bottom;verticalAlign=top;align=center;html=1;shape=mxgraph.aws3.hardware_board;fillColor=#5294CF;gradientColor=none;" vertex="1" parent="wdbDjhXvNk0YBGwekLuv-1">
          <mxGeometry x="272" y="427.75" width="84" height="100.5" as="geometry" />
        </mxCell>
        <mxCell id="wdbDjhXvNk0YBGwekLuv-11" style="edgeStyle=orthogonalEdgeStyle;rounded=0;orthogonalLoop=1;jettySize=auto;html=1;exitX=0;exitY=0.75;exitDx=0;exitDy=0;entryX=0;entryY=0.5;entryDx=0;entryDy=0;entryPerimeter=0;" edge="1" parent="wdbDjhXvNk0YBGwekLuv-1" source="wdbDjhXvNk0YBGwekLuv-12" target="wdbDjhXvNk0YBGwekLuv-34">
          <mxGeometry relative="1" as="geometry">
            <Array as="points">
              <mxPoint x="97.5" y="492.75" />
              <mxPoint x="97.5" y="514.75" />
            </Array>
          </mxGeometry>
        </mxCell>
        <mxCell id="wdbDjhXvNk0YBGwekLuv-12" value="Raspberry PI 1" style="text;html=1;align=center;verticalAlign=middle;whiteSpace=wrap;rounded=0;fillColor=#FFFFFF;strokeColor=#666666;fontColor=#333333;" vertex="1" parent="wdbDjhXvNk0YBGwekLuv-1">
          <mxGeometry x="267.5" y="477.75" width="93" height="20" as="geometry" />
        </mxCell>
        <mxCell id="wdbDjhXvNk0YBGwekLuv-17" style="edgeStyle=orthogonalEdgeStyle;rounded=0;orthogonalLoop=1;jettySize=auto;html=1;entryX=0.5;entryY=0;entryDx=0;entryDy=0;entryPerimeter=0;exitX=0.5;exitY=1;exitDx=0;exitDy=0;" edge="1" parent="wdbDjhXvNk0YBGwekLuv-1" source="wdbDjhXvNk0YBGwekLuv-63" target="wdbDjhXvNk0YBGwekLuv-8">
          <mxGeometry relative="1" as="geometry" />
        </mxCell>
        <mxCell id="wdbDjhXvNk0YBGwekLuv-19" value="AWS IOT" style="text;html=1;align=center;verticalAlign=middle;whiteSpace=wrap;rounded=0;fillColor=#FFFFFF;strokeColor=#666666;fontColor=#333333;" vertex="1" parent="wdbDjhXvNk0YBGwekLuv-1">
          <mxGeometry x="268" y="323.25" width="93" height="23.5" as="geometry" />
        </mxCell>
        <mxCell id="wdbDjhXvNk0YBGwekLuv-20" value="" style="pointerEvents=1;shadow=0;dashed=0;html=1;strokeColor=none;fillColor=#505050;labelPosition=center;verticalLabelPosition=bottom;verticalAlign=top;outlineConnect=0;align=center;shape=mxgraph.office.concepts.website;" vertex="1" parent="wdbDjhXvNk0YBGwekLuv-1">
          <mxGeometry x="433.75" y="52" width="59" height="49" as="geometry" />
        </mxCell>
        <mxCell id="wdbDjhXvNk0YBGwekLuv-21" value="Listening Thread" style="text;html=1;strokeColor=none;fillColor=none;align=center;verticalAlign=middle;whiteSpace=wrap;rounded=0;" vertex="1" parent="wdbDjhXvNk0YBGwekLuv-1">
          <mxGeometry x="320.5" y="393.25" width="107" height="20" as="geometry" />
        </mxCell>
        <mxCell id="wdbDjhXvNk0YBGwekLuv-23" value="Publishing Thread" style="text;html=1;strokeColor=none;fillColor=none;align=center;verticalAlign=middle;whiteSpace=wrap;rounded=0;" vertex="1" parent="wdbDjhXvNk0YBGwekLuv-1">
          <mxGeometry x="191" y="393.25" width="40" height="20" as="geometry" />
        </mxCell>
        <mxCell id="wdbDjhXvNk0YBGwekLuv-27" value="Client to controll the IOT Application" style="text;html=1;align=center;verticalAlign=middle;whiteSpace=wrap;rounded=0;fillColor=#FFFFFF;strokeColor=#666666;fontColor=#333333;" vertex="1" parent="wdbDjhXvNk0YBGwekLuv-1">
          <mxGeometry x="403.25" y="92" width="120" height="32" as="geometry" />
        </mxCell>
        <mxCell id="wdbDjhXvNk0YBGwekLuv-28" style="edgeStyle=orthogonalEdgeStyle;rounded=0;orthogonalLoop=1;jettySize=auto;html=1;exitX=0.5;exitY=0;exitDx=0;exitDy=0;entryX=1;entryY=0.5;entryDx=0;entryDy=0;" edge="1" parent="wdbDjhXvNk0YBGwekLuv-1" source="wdbDjhXvNk0YBGwekLuv-29" target="wdbDjhXvNk0YBGwekLuv-12">
          <mxGeometry relative="1" as="geometry">
            <Array as="points">
              <mxPoint x="348.5" y="541.75" />
              <mxPoint x="380.5" y="541.75" />
              <mxPoint x="380.5" y="487.75" />
            </Array>
          </mxGeometry>
        </mxCell>
        <mxCell id="wdbDjhXvNk0YBGwekLuv-29" value="" style="aspect=fixed;perimeter=ellipsePerimeter;html=1;align=center;shadow=0;dashed=0;fontColor=#4277BB;labelBackgroundColor=#ffffff;fontSize=12;spacingTop=3;image;image=img/lib/ibm/users/sensor.svg;fillColor=none;" vertex="1" parent="wdbDjhXvNk0YBGwekLuv-1">
          <mxGeometry x="333" y="570.75" width="30" height="30" as="geometry" />
        </mxCell>
        <mxCell id="wdbDjhXvNk0YBGwekLuv-32" value="Temperature,&amp;nbsp;Humidity and Light Sensors" style="text;html=1;strokeColor=none;fillColor=none;align=center;verticalAlign=middle;whiteSpace=wrap;rounded=0;" vertex="1" parent="wdbDjhXvNk0YBGwekLuv-1">
          <mxGeometry x="363" y="565.75" width="130" height="35" as="geometry" />
        </mxCell>
        <mxCell id="wdbDjhXvNk0YBGwekLuv-33" value="Soil Sensor" style="text;html=1;strokeColor=none;fillColor=none;align=center;verticalAlign=middle;whiteSpace=wrap;rounded=0;" vertex="1" parent="wdbDjhXvNk0YBGwekLuv-1">
          <mxGeometry x="373.75" y="615.75" width="81.5" height="25" as="geometry" />
        </mxCell>
        <mxCell id="wdbDjhXvNk0YBGwekLuv-34" value="&amp;nbsp; LCD display" style="shape=display;whiteSpace=wrap;html=1;size=0.17888885498046875;fillColor=#d5e8d4;strokeColor=#82b366;" vertex="1" parent="wdbDjhXvNk0YBGwekLuv-1">
          <mxGeometry x="117.5" y="501.25" width="100" height="27" as="geometry" />
        </mxCell>
        <mxCell id="wdbDjhXvNk0YBGwekLuv-35" value="" style="outlineConnect=0;fontColor=#232F3E;gradientColor=#4D72F3;gradientDirection=north;fillColor=#3334B9;strokeColor=#ffffff;dashed=0;verticalLabelPosition=bottom;verticalAlign=top;align=center;html=1;fontSize=12;fontStyle=0;aspect=fixed;shape=mxgraph.aws4.resourceIcon;resIcon=mxgraph.aws4.documentdb_with_mongodb_compatibility;" vertex="1" parent="wdbDjhXvNk0YBGwekLuv-1">
          <mxGeometry x="114.75" y="50" width="60" height="60" as="geometry" />
        </mxCell>
        <mxCell id="wdbDjhXvNk0YBGwekLuv-36" value="DynamoDB" style="text;html=1;align=center;verticalAlign=middle;whiteSpace=wrap;rounded=0;fillColor=#FFFFFF;strokeColor=#666666;fontColor=#333333;" vertex="1" parent="wdbDjhXvNk0YBGwekLuv-1">
          <mxGeometry x="104.75" y="110" width="80" height="20" as="geometry" />
        </mxCell>
        <mxCell id="wdbDjhXvNk0YBGwekLuv-37" style="edgeStyle=orthogonalEdgeStyle;rounded=0;orthogonalLoop=1;jettySize=auto;html=1;exitX=0;exitY=0.25;exitDx=0;exitDy=0;exitPerimeter=0;" edge="1" parent="wdbDjhXvNk0YBGwekLuv-1" source="wdbDjhXvNk0YBGwekLuv-38" target="wdbDjhXvNk0YBGwekLuv-35">
          <mxGeometry relative="1" as="geometry" />
        </mxCell>
        <mxCell id="wdbDjhXvNk0YBGwekLuv-38" value="" style="outlineConnect=0;dashed=0;verticalLabelPosition=bottom;verticalAlign=top;align=center;html=1;shape=mxgraph.aws3.android;fillColor=#FFD44F;gradientColor=none;" vertex="1" parent="wdbDjhXvNk0YBGwekLuv-1">
          <mxGeometry x="274" y="59" width="73.5" height="84" as="geometry" />
        </mxCell>
        <mxCell id="wdbDjhXvNk0YBGwekLuv-66" style="edgeStyle=orthogonalEdgeStyle;rounded=0;orthogonalLoop=1;jettySize=auto;html=1;exitX=0.5;exitY=1;exitDx=0;exitDy=0;endArrow=none;endFill=0;" edge="1" parent="wdbDjhXvNk0YBGwekLuv-1" source="wdbDjhXvNk0YBGwekLuv-40" target="wdbDjhXvNk0YBGwekLuv-62">
          <mxGeometry relative="1" as="geometry" />
        </mxCell>
        <mxCell id="wdbDjhXvNk0YBGwekLuv-40" value="Django App on AWS EC2 instance" style="rounded=0;whiteSpace=wrap;html=1;" vertex="1" parent="wdbDjhXvNk0YBGwekLuv-1">
          <mxGeometry x="249.25" y="143" width="129" height="44.5" as="geometry" />
        </mxCell>
        <mxCell id="wdbDjhXvNk0YBGwekLuv-42" value="Self-built irrigation system from &lt;br&gt;a motor and a bottle of water" style="rounded=0;whiteSpace=wrap;html=1;fillColor=#FFFFFF;" vertex="1" parent="wdbDjhXvNk0YBGwekLuv-1">
          <mxGeometry x="92" y="643.25" width="180" height="40" as="geometry" />
        </mxCell>
        <mxCell id="wdbDjhXvNk0YBGwekLuv-43" style="edgeStyle=orthogonalEdgeStyle;rounded=0;orthogonalLoop=1;jettySize=auto;html=1;exitX=1;exitY=0.5;exitDx=0;exitDy=0;entryX=0;entryY=0.5;entryDx=0;entryDy=0;" edge="1" parent="wdbDjhXvNk0YBGwekLuv-1" source="wdbDjhXvNk0YBGwekLuv-44" target="wdbDjhXvNk0YBGwekLuv-2">
          <mxGeometry relative="1" as="geometry" />
        </mxCell>
        <mxCell id="wdbDjhXvNk0YBGwekLuv-44" value="M" style="ellipse;whiteSpace=wrap;html=1;aspect=fixed;fillColor=#d5e8d4;strokeColor=#82b366;" vertex="1" parent="wdbDjhXvNk0YBGwekLuv-1">
          <mxGeometry x="107" y="610.25" width="30" height="30" as="geometry" />
        </mxCell>
        <mxCell id="wdbDjhXvNk0YBGwekLuv-45" value="" style="shape=image;html=1;verticalAlign=top;verticalLabelPosition=bottom;labelBackgroundColor=#ffffff;imageAspect=0;aspect=fixed;image=https://cdn0.iconfinder.com/data/icons/beverage/64/BOTTLED_WATER-128.png;fillColor=#FFFFFF;rotation=120;" vertex="1" parent="wdbDjhXvNk0YBGwekLuv-1">
          <mxGeometry x="173" y="561.25" width="50" height="50" as="geometry" />
        </mxCell>
        <mxCell id="wdbDjhXvNk0YBGwekLuv-46" value="" style="shape=image;html=1;verticalAlign=top;verticalLabelPosition=bottom;labelBackgroundColor=#ffffff;imageAspect=0;aspect=fixed;image=https://cdn0.iconfinder.com/data/icons/interior-and-decor-vol-1-1/512/2-128.png;fillColor=#FFFFFF;" vertex="1" parent="wdbDjhXvNk0YBGwekLuv-1">
          <mxGeometry x="197" y="571.75" width="64.5" height="64.5" as="geometry" />
        </mxCell>
        <mxCell id="wdbDjhXvNk0YBGwekLuv-49" value="" style="aspect=fixed;perimeter=ellipsePerimeter;html=1;align=center;shadow=0;dashed=0;fontColor=#4277BB;labelBackgroundColor=#ffffff;fontSize=12;spacingTop=3;image;image=img/lib/ibm/users/sensor.svg;fillColor=none;" vertex="1" parent="wdbDjhXvNk0YBGwekLuv-1">
          <mxGeometry x="333" y="613.25" width="30" height="30" as="geometry" />
        </mxCell>
        <mxCell id="wdbDjhXvNk0YBGwekLuv-58" value="" style="group" vertex="1" connectable="0" parent="wdbDjhXvNk0YBGwekLuv-1">
          <mxGeometry x="637.5" y="499.25" width="82.5" height="66.5" as="geometry" />
        </mxCell>
        <mxCell id="wdbDjhXvNk0YBGwekLuv-52" value="" style="outlineConnect=0;dashed=0;verticalLabelPosition=bottom;verticalAlign=top;align=center;html=1;shape=mxgraph.aws3.hardware_board;fillColor=#5294CF;gradientColor=none;" vertex="1" parent="wdbDjhXvNk0YBGwekLuv-58">
          <mxGeometry width="32" height="36.5" as="geometry" />
        </mxCell>
        <mxCell id="wdbDjhXvNk0YBGwekLuv-55" value="" style="outlineConnect=0;dashed=0;verticalLabelPosition=bottom;verticalAlign=top;align=center;html=1;shape=mxgraph.aws3.hardware_board;fillColor=#5294CF;gradientColor=none;" vertex="1" parent="wdbDjhXvNk0YBGwekLuv-58">
          <mxGeometry x="10" y="10" width="32" height="36.5" as="geometry" />
        </mxCell>
        <mxCell id="wdbDjhXvNk0YBGwekLuv-56" value="" style="outlineConnect=0;dashed=0;verticalLabelPosition=bottom;verticalAlign=top;align=center;html=1;shape=mxgraph.aws3.hardware_board;fillColor=#5294CF;gradientColor=none;" vertex="1" parent="wdbDjhXvNk0YBGwekLuv-58">
          <mxGeometry x="20" y="20" width="32" height="36.5" as="geometry" />
        </mxCell>
        <mxCell id="wdbDjhXvNk0YBGwekLuv-57" value="" style="outlineConnect=0;dashed=0;verticalLabelPosition=bottom;verticalAlign=top;align=center;html=1;shape=mxgraph.aws3.hardware_board;fillColor=#5294CF;gradientColor=none;" vertex="1" parent="wdbDjhXvNk0YBGwekLuv-58">
          <mxGeometry x="30" y="30" width="32" height="36.5" as="geometry" />
        </mxCell>
        <mxCell id="wdbDjhXvNk0YBGwekLuv-53" value="Raspberry PI...n" style="text;html=1;align=center;verticalAlign=middle;whiteSpace=wrap;rounded=0;fillColor=#FFFFFF;strokeColor=#666666;fontColor=#333333;" vertex="1" parent="wdbDjhXvNk0YBGwekLuv-58">
          <mxGeometry x="-10.5" y="20" width="93" height="20" as="geometry" />
        </mxCell>
        <mxCell id="wdbDjhXvNk0YBGwekLuv-60" value="" style="shape=flexArrow;endArrow=classic;html=1;" edge="1" parent="wdbDjhXvNk0YBGwekLuv-1">
          <mxGeometry width="50" height="50" relative="1" as="geometry">
            <mxPoint x="427.5" y="491.75" as="sourcePoint" />
            <mxPoint x="597.5" y="531.75" as="targetPoint" />
          </mxGeometry>
        </mxCell>
        <mxCell id="wdbDjhXvNk0YBGwekLuv-61" value="Easily extendible" style="text;html=1;strokeColor=none;fillColor=none;align=center;verticalAlign=middle;whiteSpace=wrap;rounded=0;" vertex="1" parent="wdbDjhXvNk0YBGwekLuv-1">
          <mxGeometry x="483" y="477.75" width="90" height="20" as="geometry" />
        </mxCell>
        <mxCell id="wdbDjhXvNk0YBGwekLuv-67" style="edgeStyle=orthogonalEdgeStyle;rounded=0;orthogonalLoop=1;jettySize=auto;html=1;exitX=0.5;exitY=1;exitDx=0;exitDy=0;entryX=0.5;entryY=0;entryDx=0;entryDy=0;" edge="1" parent="wdbDjhXvNk0YBGwekLuv-1" source="wdbDjhXvNk0YBGwekLuv-62" target="wdbDjhXvNk0YBGwekLuv-63">
          <mxGeometry relative="1" as="geometry" />
        </mxCell>
        <mxCell id="wdbDjhXvNk0YBGwekLuv-62" value="" style="shape=image;verticalLabelPosition=bottom;labelBackgroundColor=#ffffff;verticalAlign=top;aspect=fixed;imageAspect=0;image=data:image/png,iVBORw0KGgoAAAANSUhEUgAAAMUAAABPCAYAAABbEwFOAAAgAElEQVR4Xu2dCZhdVZXvf3ufc8dKpZJUJkgggZBUQkLMnED6aWu32nOrPflpv7afT2ZBBhlsWuxPARUEebYgoLa+7ufXg9qDbbez3U5AZSZkJvNUSSo1pMZ77zln7/etve+tqpAiVQlBCnLP94WEqnPPPWed9d9r+q+1lbXWUj2qEqhKoE8CqgqKqjZUJXCyBKqgqGpEVQIvkkAVFFWVqEqgCoqqDlQlcHoJVC1FVUOqEqhaiqoOVCVQtRRVHahK4IwkUHWfzkhc1ZPPBwlUQXE+vOXqM56RBKqgOCNxVU8+HyRQBcX58Jarz3hGEhjhoLAINUspBcif6lGVwCsvgRENigpX0WGiCopXXhuq3+AkMKJAUaHrOgzYGBN3+ZsMsiidHeSVySeqFqSqy+dWAq8YKE7PSBdlLiu0BasMWIOxRWypA7r3YFo3EbdtxKAJxjUQjr2CIN+AzYx2ALFWozAEcqWBuKj82+qypPq/S6nKz86tEKtXe31J4NUDhVIYa7BRB7a3ibjrBWjdCK0bMJ0vQHwUkhNgFCYcjU5fSDBqJmrc5ahxi7GjG9DZyYRBDXj/CgRcDmzy39D/TGKS8s+UEghVj6oETi+BVwQU3kpIkOzVUwJlUU2voyWI2zHdB7DtW4hbNhK3bSHo2YoutRDYAtYa0Mp7RlauE6KcalsSnUanJqDy00nql6EmLCE1eg5BZjKkakEHKDEdco2K1ahgpgqKKh6GIYFXCBQuWsHaBGsjSHowxVbo2otp20R0Yh3mxDbCnv3ouBNlE+cKGdFlpcsA6l/hwcjlUARY92/xuSyxTmMy41G5i6BuAXrsIoKxDQQ1F6NSEzA64wDp7YOAs2ophqET5/0prwgojI2xSTtx4QimbRv2+AZofQ7VsxOKx1CmC6WM93qsd26c4yPGwSl/xQmq/C3xgyWwCaAdeIyEB9YSGAGKfEgTBzmS7FSC0XMcQML6N7h/q0w9SueqoDjv1X14AnjZoBBXybk7tkhSasX0iDXYimnbQNK6Dt27nyBqR5uSD4iVcoovmu+9fw+B0+eR+qLnvqfqz1RVICTX0A5ckGCDDCo1FTtqFtQvIhw7j3D0LFR2Gio1ulz7kNupZq+Gpyrnz1kvHxQYFyfEPc30Hvg3zJEfELavISi1om2CRrvskq0g4RWUrbhW/nB+mIstxNOKdR6TnwrjV5Ke+i7Sk1aiw7w/swqKV/CNvDYvffagELferfHex7emiCk0Yzq3E7euJm5eRdC5g6BwDGu7QMVlq6Cdzrq4oM9SvEzhufSrXE/iEfmaxKdyg1ps5kLisUsIJy4jrF+Iyk1Hp8eiVDk71ZeZqlbNX+ZbeN18/CxBYcHI6u+VsN8BEW1PsKYH03MM07WL5PhabOs6VMcWiI5ikw6XGQq8L3VyjeEsxWqkZuGyTQqbGudcJDtmLuGE5ahx89H5SyE9Bt0HhIrb1v+F1ar5WQr/dfixswKFNSWi7v1oSY9mx6OCXDlA8O6LLQfPzopILBG1Yrr2YFvWY1rWkLQ9h4oOo+IOp8zehRksqhgYcvfHHxUb5ZJQKsSEY7G5S7DjFhFOWEYwRgp9F6FStVid6stWyfd4AAt4tcuOkXRjTYR2cUbqdfiKq490phI4Q1D42oOJWul6/gFU1x6C8UtdlkeXszyByiORhBTStPj1ZTKfxBTKFLFRN1H3bkzrGszxNZgTm9E9+9ClTqwqkjjvSrvkqwtD+uASoK1BHCOrQ2yqFpNrQI9diB6/hGDcFejcpQShAEE73AgADPIZSe9KykpC8QjiXmzhIHHbVgpt60CnqZ1zs6t/VOoqZyrI8/X8wZkLAxgLfX7EYD8bntSGG/cN916Gut4ZgcIFslZhSs0UV9+IbvoXYpXHZKcQjppFMG4RQf1CTN1sVG4ygaoZNJA1rn4h3KZOVPdeaN1KqXUdRixIzw5U3I62pXLKNnDhcyKKnqrH1kwnHLcMPW4ZQd1sgtxUbDoHKgMEAsfy4d0pI9ZEwFg6genci+nYiG1dA+1bsT17sHErtv4t5Fd8EZ29oAqK4elp31mDK+KAhEcfKAb72fC+bCglrlxluPcy1PXODBTl4NiUjlFc8yE4/G9gJb9UdCtxonPo1ETUqFmY8UtQEtzWNhBkJ2HFxSrXJYTe4eyBkvqDrM0xNurC9h52dY2opRHTvhrVtUPYgNj8Zdixy0jJ9eouJ8hegAprXEzjLInDqo9P5G7cNaUWUmoj7trnUsNxy1psx3p072GCuAvtCt5S87Ak9b9O9qon0dkpr1tQ9CtMORF+Duj4rr4k7q/T90qRqZJoF8vsU/AuGejoNr6oewrVQGy5c4V91rB8onOt3duUBXHIw2KkUGxTA9L9vshbcZn72EBDcODOAhQWUzpK75pbUIf+3VeLdXFAGtQLJVE5l/nRuekEE5aBgKR2JkFuCoQ5FwuIgMr5IgcuuftYBBSfQPc0kXTu94peczFhTqrUeZDPuSC9wnNSGCMabrCmgJWCYddO4pbNqJY16I4tmMIhlwEL/Ntz3yVVDaPlM6Dqf5PMlU8SvF5B4TKFFWUcCIohNe20J8g1YyNsBHlx4pIeg+IR5yIbShCG6MxkT8FJj0bbTH911l3ZK3tii5ioGROX3LuVapNO16NTtShJogwDFO5eoi4otnoqkQOjRqfGo/So8v9Wnv30zIYzAoXjIYkylY5RWH076vA30SrxRDwrPr8ompTORL8VuvwyFGlIjycZ1YAeswA9fjF67FxU7mICIfTpwCHa86U8up28+uIC/w+5pqd6+FVJucp5D0nPERebRK0bsG0bCDs3owotJKqAIkYnAUpoJ2IeHCjk+3zqVuINxv0OmasEFJNfhqWopJhdVPIiQrtIrfKzM0lF+7y3Xzx9ynnwY+A1T01YeAqaZAVLzpV0i69Ke7ZxedX01x9mIdPdk3+mJD6BbV9PselHmOMbCLv3oBzlPyYJA2z6IoLaeaipbyYzfiUqc4F/d+5BRDkVSaGJ7u2fQwvrwdW1QE17N9npf4QiRTAMUMjVii2NlLb9NarQRqIk7hxNavYHyI27ElTKsSicFp1LS1GpQSfFYxRX3QpN/4xScfl1n06g/qVJVkpWehvWkYyaCfVLCeqXEo6Z7/35MAcCICc04Sp5V0hMtLg5gVgTW8LE3SSF/Zj2TZiW56BlHfTsQ0XNLpgXAFRecIU6cmp2y1MMEwnex7+d/JVfOuOYouKSSBYrElev8yCq5gJ07SyvdGWRGBN7RnDHVpLSMU9gFItZrpF4Re+vkwhDIO49gunc7JIAum4+YboGt7gMOCqrvzIFoq7d2O4mgtGz0PmpTgGsSSDqJeraRtSxCdO1F3rb0SqFzoxB1VyMrmtAj56BDupAh+gyP2wwv7vveY0RhxcdNVM4+HWSnX9L0L2dMOn1lt1CaDTF0KATscoZSvlJqAveQW7mB7C10widBRBvQWM6d9P99J+Tan/aucvuIrNvJz3vL1Eqix4mKEqHv0W06iaC4iFHBYrDSdiFD1E7/Q8cuCo6cU5jiopiJcWjA0BRNp9nYIm9BREXK4VJj0HlZkDdXJi4Aj32DQQ101zhrfKCErFAcSd0bCFpLad02zehew9Aqa1vJRVS4cmKNvRNOQWc8DbyK758lqBQ2KiZnuc/CQe/i530FvLz70JnL3QvXO4nMbJKd1N8/kGSQ98ldcWt5Kb9SXmlHHiP5RjJ9tKz6+9Itn8Ok60n94ZPkq6/8pSkhWTWxHqoqI3ujffDkf8inPtRMtPe4RarUsdmop1fQzX9mCg+iEIsQw2BrNC2FatK6GAadvIbSU3/Y8KxCwi0JCwGr/RXQCEZQCOWePcXSXZ+ARUdc+5KKLUra0kCTWADrFGOr5ZoWdQ0RudRU/6Q9OV3EkgRNRCXWWE699Dz9PtInXgWq8os54ZbHShQueGDoulbxKtuJigedDoRBR4Uo35poFh9K+qwWArvLA33cMGZ+HpiCcTXKvc7xBpMOAZbu5jMgo+7TJaoiKedQ9y2ip4N9xC2r0MnvQQ2dgJNXHDmeyncWntSx9HQdyUreHIWoHCgLtNY4tZfED17E0H3Rkr5maSXPEZ64hv7quYujWyLlHY8Trz5IfQl7yV/xb0gfSIvthYS7yRH6Fl/J8Hef8SqUaj5nyF92XvRsrIOkLWAwsjnO3dQ/Pn/hriLcPnnCSauhI7tFDY+QHL82+jsLILJb0WPnYfJjXGpcorHsS3PYY/8wsVgyfhl5ObfQ1C/xOXw+iv+FRmWOW7i8dsCpQPfxDx3H0FhN4kWVznGhBOgfiVh/QIIcpjOw5hjP4LenYS26GLsKByDariL1KyrCULx9cVSvBQoPgpnYima/p2k8WZUdMDrTDARu/BBRk3/Y5TrrymH3ENQe84spij7nWIpCqtvRZ8FKCoi9h6OVMXL9FiXojDE2cmkl3+JcMLb+ocWiPI3/4TCqmsJe/aW3aMz8IFPg42zB4W4XpErTha2/TV6y6PYXL2r4TDjg+QuvxkdjD6pr6TY8kOKjR8izEwhs+IxVM1lZeCXQx3nZWrizo0UG68h6NmFSXrRU/8X2UUfR6XqfEKifEhqOybCHP5PzOoPoUcvJbXiEWw4jmjzo8R7HiWZtJLczLsIxy7EhlmCStbJkcI6iU6sJdr2JPbYDzEXvJPcgnsJc5Od+3fyYifA9izluHs7xTV3Ehz7nvOVlDSCpSZiZt5Eatq7SYurpELiuIPo2M+IN3+GoGO1c6kExMWxC8gt+xypusUvbSlm30Z6rliKM3Gfvo1ZdTM2OuBzmg4Un2bU9He7WHREgyKQAqBb4CsWxgvbPUh2EullXyGc+GYXg0jgJad5UFxH2LvLg6KsQEPbgtOfcbagkKvGxpB07aCw+maC3kMEM99HtPMfUKkx5FY85mjrAnRf39EkhT30PnMDdL1AasXjpCe82a1gfbGH5BNUQungNyit/wjBhJXYE3vQpEmvfIygdnYZFF5uEjMY20Nxy8MkOz5P6tJrCObf7WKLYuMHobCbcMmnSE3+fUer8QG7Vw7r0qBiERLi1lWU1t+JKRwhtehhshf8lmMrnAwK3x8jAXRhz9eInruHdHTcvcGSrsVOfz+5ebdDeiKhNIg5S2qJpJdm71cwzz9AttROohKisJZw/mfIznifiyEkpjjFfTrfQHGymg6gclhIspPILPsqetKvekA4Q6KIm39CqfFaB4ozcdeGAs3LAUWSFCjt/ydK6+9xIE4vuJuerY/DgX8ls/ATpKa9d4DSK2zcRe+m+7B7v4qafQeZmdejlQxl8E6UrPsq7qGw5QHMvn8knP8xkuPPow5+h2DZA6Qn/7bPwJU5XFKrT3oPEq25E3P854SLP0N48R9jWtdSePYaCLLkr/yi7ylx8UdQzja5wkE5R6iI4zYKm+7H7PoKQcOHyM+5HR3WvEh01qW+k9IRChs+gjrwdVKS0RLGQP5ywuWPkR6/spy9c46vd+5kAezcTPHpD5A6sYliSqOCephxCzWzr0WF2SooTqukUi3PTnSWQk+SVdSDwpTdp6jxWudS9C2tQ2n8MH7/skDR20xh/Z1Ex75Hdt4nSE//QwqH/oPShr8knPBGcosegLS4ImWLaBOKB75Osv4OmPBrZBZ/Ep2Z1P+cQmLp3keh8RZs3EZuxeeJWteSbPwr9IwPkJnzYbSSbkKfZxdQxK3PEj1zIwRp0iseI6xbSty+muIzVzugZa76GxdAS7rcg8ILxf3lc7WUkhLJ3m8Q7fgywUVvJzfneoKw7hRQJJJ16thEsfFGwo61kkx1PSx28u+RW/IQKntRGRSV+/NxiI7a6dn+JejahRo3B51vQNfNIhw1DaXFUgwSU5zflmKA7IcExXUE0r13DnsgzhwUfoWV/0bNTxM9ex1JZhzZ5Q+jR72BpHsH0apboLeJ9IpH0OPfRODSgWIJDKZ9A/Ez1ztlCa96klDqNhXwm4So+WdEjTegJ15JdvHDJF1bKTXeBPlppJY+RJCZ1pe3N7ZEcc8/YTbcBhf8BplFD6HSE7A9uyk03oY6sQY1924yl/y5K4S5ZVsYAr7C4GsCInNx8UrHsL1HUOmx6PwUAuc+DTx8Fi05+hOi1Veji4d8Zo0MduZN5Ofd1RdDVeoAPhEvrqN19QzXYhAK9ceDxj33S2WfqqAoC/90oDj2U6JVAooXRgAowCTdFLd8DrPtcbjs/aSvuA2tR2OSTqLNDxLv+hKpWdeRFlekHHA7aqKks9fei2n+LuGiR8hMfVd/liqJKO16gnjzp0iJMl92jett7117G5x4nvSyxwjrryqnKDU27qT7+Qdgz1dh7h3kZl4POgWmi3jXP5JseZAkTKMv+hPCC9/s6DeODezqA1LQ9JbYZaMqNA1nPCTWODWjKG3G8cFvEa+9Hi0JBYkwpFp8xcfcd1fqKIPXOCoAe1HavAqKIfyZlwCFiylGCihk1ZMVv2cPhWevx/Y0kZEVfNKvoxOpn8eYYz+huPZ2wuwk72vXNrgHF/9bqCi9LzxFvPUBghlXM2ruXwiPxa+6pVaKayU++AXpZU8STnoTxvQQbX2UeNsTLojOS3CqpcipMD376Vp1HbprL6nlj5Ou/xXnIsXS0FVoI977NeLd/xeKhyE7GT16IdRegh59GcHomQT5C9BSJxJWgQvAJZCWox8wA9+YMUUK+/4Bu/7DBEm7B0VYS7DwITLT3lcO4k9f46jQ/vuuWwXFWYJC1Kn5Z5RWXYt+lQLt/uq1IbIF4n3fwmy8EzX+KjJLH0anL0AZSywZnt6jdEud4dhPCRY8RHbaH7iRPUJvc2nn5p9SaPwAjL6c2mVPoPNCL1FE7RspPHsLSPZK3LH8DEeWNE3fo7jqFtSFbyO/4OPYdL2jr5SO/pjetTcS5ueRW/44Ojupz7VzpBmhYBxfRdT0A0z7OjdkTircUiW2wj+rmQJj55NytYUlkBsPKu1IeIFQb15Uf0qkj2bv35NsuJ0gOUEgVevUKPSiR8hd/Kf9RL5BaBSylPiVob9y71yrKijOBSh2noYDNMT1B/n1cGOKgaCIi80U19+Nbf4O4eX3k5rxpy6v77hfrj03prD7KeKNn0ILtWHxfaj0GN++K//p2Uex8QaSnkNkVnye9ARZ4RW9B/+FZM1dBNP+hPQVd6KcBZHi1nYKUpSykTufusvB9BJv/xuKW+8juPQ6auZ9GLT0nQ90e2Tqou+EpHAE23XA0+e7tmE7d2K6DmJLTViZlTXmV0jP/DOCiW9C68zgoLAJZt8/Y9bd4Ka1CIcskZGm8+8jN+NqT9Z0BdcXE+7cxK5yZC8LQ6XWUgXF0Br7Uu6TWIpjYimuQRckJTscKvHQX+fCwGFWtPtBIQH2Tyitvg6jLem5HyOsneOHt7kQVoLYFEnHaqKN96OpIXXlFwjGLu/z4YXE2Lvl07DzbwiuuJv0jGshienZ9mnY/WXSiz5LOPVd5cKfMCxPUHjuAeyBr5Ne+gjB1N8lKbaSrPlL4uZvk1r8ebJTf9/3qPtqqCuS+dkm8kdiiMr9iQvXA6UebM9BorbniA/+G/r405iamaTn30tq8tsIgkoPe78chSdmjvyIqPED6KjJMRNkUB0Nt5ObewfKgfLF87UchRRjhNadYHSIEvJohUpStRRnaSmk5+HITymtvpbgVQWFcoF0cevDqG0PEasMSf4SR2/2oBCqiUIbefElgt49JEJjmH07uVk3okOZPSXKZikd+FdKGz6MnvQW0gs+6QbGFaTgVmwmc+VTpOrmObPirxhR3PdNSuvvJX3pe8hcfgdxzy6Kz1znLEPmyi+QqlvgzzcR8YnNbohEMGYu5CZJhDBgGfE1BK+8kjKNiTq2Em39Anb/36Mv/CPSi+4jyE8+hbwjVidq30TxmWsJu9eX07oaM+UPyS55CJ2eeDIoXI3VU1x6mn6MbXuOYMwsgpo5qPxkwnTdS9M8qtmn02efhKbsQXE1QWHPq2QpZO1VzvUoNd6IPbEVxi6HdB7j6CoCBNcjiLKhd5WiNoKWRqKxS8gv/SypUQ2eJCgMzrbnKa6+DpWEhFc9hkmOEz19PeHYq0gtfZAwNa5seTzlPGlfT8+zN6GzE8gsf4SkdQOFtbcQjv8tMovvI8hM8IziuIPu5+8nafoBwRX3kJ3y2673POzzqvqtbMV2JJJVavkFpVUfJLA5UiufIj120SkrWGxiot4monV3oY9+g5S0NRpLcfRCB8z0GPmM9NyXq+bldgATtdC57m7Cfd8gyY3G5maTmfpOMpf9GSpV01e8C08828eSVQ23kZ53jyMESnHz1FzYwFlh/relw69hmsdL2otT3KfKmZr46H/7/Hhh3y+9ou1IjCZCCNNmz9eJN9yFEQLd4vtR6fHldKZ3mf2rcp41Sc8+otX3Yrs3k1r8MJkL31WekWuJxP2Rwl/Tz0kt+SRx4TBmy2fIzLqDVMM1jt7tD7+y2+gYhTW3ELduIFz6CPbIM5R2f5Fg7p3kZ1zn4gBHhk866Hpequb/D3X5h8lfeo2j5EuXo7uryu31vQRZySPi7v2UVt0APVJfeYr0BKlO9x+OYGdjtGSgXngCs/mvSDmquJAyR2MabibfcD0qkNVfQBG4Cr1MfTFtv6DYeDOZrhcohQnYLOFlHyYz/w5UkD8JFC7cMAHBzDtJXXG3j5MG45u6aTISk0i1w9c7ovMPFP9FtFpiil8+KJwTkCRY6U3f8BfETd8mnHcvuZlXo1Smz48XFaqMs5KsUWK6ibY+Adsfwk57t8scVUh9iSkQ7/oyhc0PE1z0O6iom6RlFdml/4dw4q+Wm2oHgMIWKO74HPG2xwkueQ9Gesw7NxEufZzUhLcQVFpzbYnCrq9iNt4LF/4m6QX3+/bdct3hVFAIRykm6Xie6NkbUHFCauXjpMcuPWXtkvOE9h9Llmz1zWTahOot6TZDb81lpBruJDP199xcLZcapkTS9QLJ5s+iD/2DS0CUdEIqvIRw8V+TmvLWk7JPYil8DG7R028hmHOrq9T3LzSVW5IGM1+I1OEotGt1roJieFH0MM4aTqAtfnFkI+zRpyms+SA6yJNd/gSpceIulMl5lRW4jArJtki+xbQ9S+nZa7E6R3rF46TGiO8vn9FELT93bNjQ5ayAmlmklz5KWHPpAFD46zt26bEfYFfdjAozxMkJdH424dInXLtuqg8UllL7KpfC1aXjpOZ8lGD6H7iJiJVavJvM6/7Hp0eTUjvx7q+QbP00jPsfLsUcypDqF8nPjUeVBUJ6Q3Z8Fbv1AULXSyEhfUCSuwSmvJ1g0lW+5bjzAPbgfxO0/Ahl2rGSrSKDmvpeMgvuRecmDwIKoaFb4lFziesWuvvTIsmBN+NkrTAqQ3r6O8lOfpuLTUqH/8OxZDmJJfsaoo4Pqq+ndZ9eTUsBcdxJafNniXZ9ltRF7yHzhvsJ0mNOeYyBAwIchSJppkcYr/u/jZp9D5mG97uqs4zhSXoOU1x9A+mj3yeS2bczPkTuijvQQe0pcZPAJu7e5ZpoaPkvrLhLl95Eat5HnAsSli2Ba/JJ2oh2/i1m62dQ6YnYme8lNfk3IHchKpTORnHNLDopQOE4xYP/id35FEnSRTjvL0hf/B7ClHT6nQyLvgyc3EvPAaJND6MP/B3K9LrkQhIUiYIUNhzvxhClZGuFKPJZMeWtTLFuJZmFdxGOl9SvDBnobzISS1Hptqykr12cdErdQwZry7ITwryPkb38Nlc4LB35TxKRT+mAI+LEv+wmo5fbT/FaA0V0YgtR4wcxPTsIFz9KasrvDcIP8lMr/OEZonIU9n8Du+42bN0bSC97lCB/KdZNUowdJURv+xRJqh61+FFyF73DV5dfpAjin8tAgOKmT2B3fQ6bmky4+EE3G1c7WoZPoTpQqARVaKa040mifV/DRj2ENQ1QP5cgPw2bymKJUN2HnRuWnFjvqup6+vvIXvZ+bKaeVJB+aVC4LFeM6t5NYeeXiQ/9E1mpgziCoOwlIjiQeMKv82LlrMqR1C0jmHMb6clvRMsUeBcu+Sajbum8a3/aZcp805JvLKj0+59CY1cyvSOFmiuguN2BotgkoLgJXTzggidpRzULHyy3o0pHoQf5K9aOer6Boni8kcLGT6JzE8hc8RF0/iJCV/U9fc3EEQc7dlDc+Glic5z83HvR44S1KoS8kNKR7xNtfhibriOz6OMuQ+WcGkfc84G7xAFxefuz0qH/INn+ODY7iZr5HyUlhTy3g2z/ffjPQVQ8hj3yY5L933XcqSQ55jJkfhWWrIAmSI3GjpmDuuidZC54O2F6vPvOSmD+kh6okPuk5bNwBJp+SHzwe5gTG9HFoy4d7fYnkV4J4UalJ8OkNxFO/33CusXowLe8+kM5q9O58V5SLWtdeO4Pv6L099j3Wy13/2JhdA1Bw/XkL/2f7lmKzT+juPETpAotWAokqYnY+XcyauKbXOxXGcz3CgwuUJyLzrvXmqVIohb38rSuRWenYgM/ZWKwxMjAZ3PxSNwD3U0Yekm5rQD8xHPnz8edmN4DTgkDoVIr+V0/Ic+Rs8sDToRQSLGdpHAIpdME+eno0G+Q+eLVz9WQbYySfQSLLX6mVtdhEmnqNxGWFGFmgqtH6Jrprp4h6c9KLXqo1dSrrTBnY78NQ6EF03MA1S1V8lav02EWlZ2ArpFRR2Khah1j+MXXlhgl6tqOLhZR8rBDHW6SiIA7h665yD2HA1fUjpVpIklJErRYnUXXzECHY5xF8gMtBqu4n/yFr1o76msNFNJgI30d8s6Edu36zMvTRk7/Di2R61gTkp2ftu4bfrzHXp5b4qeXlEPhgSuZq46U+x78VgPijshAALkRf52BIBp4L1Js87/3w4Fc55wMDHPujPxYXJ3KeKHyeWWUDwcU8l1GJoaUg3aXiXL365LYvmajA1/1lvSs3IWb70+zpKcAAAWcSURBVFVZSsrWwDtYzvWq7Oo2FC58d7oMOZDKvbcu0knolL8srz570zdSp7wUnfsRN68vSzHcaR6DjWQcruL0fbZvo5rB6gVDsEsrm1z2bTvQ72I4ZRtk67LT71Dbr3YDz+tL3Q6zZ8W3qHqrN3hB4XTqffajNIcCzel+P9R7O0tLcYze1bcQHP5nh1K/QpyDY4jsk69o7z8L4fffm1/LKgrlZ80mE95KfsXp5z6NHFC4TZLLf8pP4yaZnDzpw6+cw3BFBpw3UFmGUpyKRCtp2rMDxcDnOEc6NAw1HOrZzhoUnWtuJt30TUcf9rsUnYPjJfspLPGRH1GSwQUCimGA0NG0JQvjqrjlWoKbhO7v0+U2bOj3zxv/VnIrnkJnhbsjlz93hMNzIJVhXMJXIKrHuZHAWYKima61t5I69HUCyWa49zHwpVT+XfF5h3mzpwNF0w8prbqesDhMUJSnBAogKvtouzSo8+uVnzkl41p0RDLhHYxa+rjLLJ3K8hzmvVdPe91I4KxAIbOIiod/jDn4HWz7OlThBbRsBC8BjwuqfCpNKphaJlQMV1ynBUXZUgwTFM56Sf7e0/h8kGfKO7FK4UwGcWUuJpaJhFPeRvbC3yUIKvvgvdYsxXAFXD1vOBI4Q1BUXA/JOsgGLB0kvfuwrWuxRxvdcGMKB9wORS5Tov1OqK8GKCoPL4BwnqupJQ6yBNmpKDeicwnh+MVQ47f+EiapFI68+zTsOx6OjKvnvMYkcJag8IOJXSpQRkcaP/Q47t5H3L4BmhuhdT1aaN5uArUrbZYTg7JaDxaDeL/YZGTEjcx96h9xI6t+7Nyn6whLEmgPvpL3e9byHX6DGaFDmOzFMHop4aRlhOMXQM0McFz+dHnYuRSrKrsuVUHxGtPhc367ZwUKH6iWjwEZDreFl8wULXW6yXlxyzqS5lVwYoMDiEzHdiuxc+ylbbOSxpO8f9kKpaeQWfbl8jC0yvwgiI58n2TVDQQOFCev5D6H4YEgefeAGkq5iW5os64XICwhHDXb9SK4SRZ9UUb5StU49Zwr1mv5gmcNioEPPZDv0wcY4bs7C3LcNcwnrc9TPL4Oe2IjKRmbT4ejOlR2rvHjka3bzyCz9IvoyTIhcAAojn4f03hDeaK0tzYuXpB2UvfRPDpzEbZuLmriElT9AoLamZCe5MbZy+UDGesyfGfutfxeq/f+MiRwjkBRgUJ5d9RyPbOynjtFlH6EuIWkexdJy1qS5kaU7HHXewRsF0pFnjGZnkp6+ZMEE3/tJFDER79L3HgjQdHvbuQhlMNkJmFrG9D1ywknrnT7M6hMvSvx+3Ss73Gw2jpQVI+qBIaSwDkBRb8nNUh1020qL4dMcZCxjZbYdqMKrdiOfSQta7Ctz6Dat6N6D2KCOlJXPeF6l2WPVA83RXz0OxRWfxBkq+HUVIKaBpRs+jLhSnTtZeC2Lq7pH1HZZxEknqlwLU8tcA0loOrvzz8JnGNQ9O9D1+f39+0zV4kfKtOr/ZRx2W7KxCdIOndgjq8madtLuuHPSI1b0j9gWRifx59xI+P16GkE41eg62Q3oHGOQOdJxt58lPNHA+IOSX+ViWB9dLfz70VXn3j4EjinoBj217rAtkK2KFeb3SYusiFgwXWWyX5sldSoUAls0gUyj1T6DqT9sM8SVEL+ahp12PKvnnhaCbw6oBjklnywfjJ7sr9eUGFdygercUFVp19ZCYwYULjYwTXLCMXZ/91/VEAhP6tWm19ZlahefUSBovo6qhIYCRKogmIkvIXqPYwoCVRBMaJeR/VmRoIEqqAYCW+heg8jSgJVUIyo11G9mZEggSooRsJbqN7DiJJAFRQj6nVUb2YkSKAKipHwFqr3MKIkUAXFiHod1ZsZCRKogmIkvIXqPYwoCVRBMaJeR/VmRoIE/j8WzZtAHLmUoAAAAABJRU5ErkJggg==;" vertex="1" parent="wdbDjhXvNk0YBGwekLuv-1">
          <mxGeometry x="254.5" y="220" width="119" height="47.7" as="geometry" />
        </mxCell>
      </root>
    </mxGraphModel>
  </diagram>
</mxfile>
